<svg width="378" height="60" viewBox="0 0 378 60" fill="none" xmlns="http://www.w3.org/2000/svg">
<path d="M47.1293 22.4545V37H44.0895V24.9545H38.2088V37H35.169V22.4545H47.1293ZM54.9293 37.2131C53.8261 37.2131 52.872 36.9787 52.0671 36.5099C51.2669 36.0365 50.649 35.3783 50.2134 34.5355C49.7778 33.688 49.56 32.7055 49.56 31.5881C49.56 30.4612 49.7778 29.4763 50.2134 28.6335C50.649 27.786 51.2669 27.1278 52.0671 26.6591C52.872 26.1856 53.8261 25.9489 54.9293 25.9489C56.0326 25.9489 56.9843 26.1856 57.7844 26.6591C58.5894 27.1278 59.2096 27.786 59.6452 28.6335C60.0808 29.4763 60.2987 30.4612 60.2987 31.5881C60.2987 32.7055 60.0808 33.688 59.6452 34.5355C59.2096 35.3783 58.5894 36.0365 57.7844 36.5099C56.9843 36.9787 56.0326 37.2131 54.9293 37.2131ZM54.9435 34.8693C55.4454 34.8693 55.8645 34.7273 56.2006 34.4432C56.5368 34.1544 56.7901 33.7614 56.9606 33.2642C57.1358 32.767 57.2234 32.2012 57.2234 31.5668C57.2234 30.9323 57.1358 30.3665 56.9606 29.8693C56.7901 29.3722 56.5368 28.9792 56.2006 28.6903C55.8645 28.4015 55.4454 28.2571 54.9435 28.2571C54.4369 28.2571 54.0108 28.4015 53.6651 28.6903C53.3242 28.9792 53.0662 29.3722 52.891 29.8693C52.7205 30.3665 52.6353 30.9323 52.6353 31.5668C52.6353 32.2012 52.7205 32.767 52.891 33.2642C53.0662 33.7614 53.3242 34.1544 53.6651 34.4432C54.0108 34.7273 54.4369 34.8693 54.9435 34.8693ZM61.4137 40.196V34.5994H62.2518C62.4933 34.4479 62.6874 34.2064 62.8342 33.875C62.9857 33.5436 63.1088 33.1529 63.2035 32.7031C63.3029 32.2533 63.3787 31.768 63.4308 31.2472C63.4876 30.7216 63.5373 30.1913 63.5799 29.6562L63.864 26.0909H72.2305V34.5994H73.9208V40.196H71.0373V37H64.3683V40.196H61.4137ZM65.2631 34.5994H69.3754V28.4205H66.435L66.3214 29.6562C66.2409 30.821 66.1249 31.8106 65.9734 32.625C65.8219 33.4347 65.5851 34.0928 65.2631 34.5994ZM75.6839 37V26.0909H85.2223V37H82.3317V28.4702H78.5391V37H75.6839ZM90.5277 33.0085L94.4553 26.0909H97.4382V37H94.5547V30.0611L90.6413 37H87.6371V26.0909H90.5277V33.0085ZM104.793 37.2131C103.675 37.2131 102.714 36.9763 101.909 36.5028C101.109 36.0246 100.493 35.3617 100.062 34.5142C99.6364 33.6667 99.4233 32.6913 99.4233 31.5881C99.4233 30.4706 99.6387 29.4905 100.07 28.6477C100.505 27.8002 101.123 27.1397 101.923 26.6662C102.723 26.188 103.675 25.9489 104.778 25.9489C105.73 25.9489 106.563 26.1217 107.278 26.4673C107.993 26.813 108.559 27.2983 108.976 27.9233C109.393 28.5483 109.622 29.2822 109.665 30.125H106.81C106.729 29.5805 106.516 29.1425 106.17 28.8111C105.83 28.4749 105.382 28.3068 104.828 28.3068C104.359 28.3068 103.95 28.4347 103.599 28.6903C103.254 28.9413 102.984 29.3082 102.79 29.7912C102.596 30.2741 102.499 30.8589 102.499 31.5455C102.499 32.2415 102.593 32.8333 102.783 33.321C102.977 33.8087 103.249 34.1804 103.599 34.4361C103.95 34.6918 104.359 34.8196 104.828 34.8196C105.174 34.8196 105.484 34.7486 105.759 34.6065C106.038 34.4645 106.268 34.2585 106.447 33.9886C106.632 33.714 106.753 33.3849 106.81 33.0014H109.665C109.617 33.8348 109.39 34.5687 108.983 35.2031C108.58 35.8329 108.024 36.3253 107.314 36.6804C106.604 37.0355 105.763 37.2131 104.793 37.2131ZM111.602 37V26.0909H114.627V30.3239H115.48L118.449 26.0909H122L118.143 31.5028L122.042 37H118.449L115.757 33.1293H114.627V37H111.602ZM125.364 41.0909C124.981 41.0909 124.621 41.0601 124.285 40.9986C123.953 40.9418 123.679 40.8684 123.461 40.7784L124.143 38.5199C124.498 38.6288 124.817 38.688 125.102 38.6974C125.39 38.7069 125.639 38.6406 125.847 38.4986C126.06 38.3565 126.233 38.1151 126.366 37.7741L126.543 37.3125L122.63 26.0909H125.812L128.07 34.1023H128.184L130.464 26.0909H133.667L129.427 38.179C129.223 38.7661 128.946 39.2775 128.596 39.7131C128.25 40.1534 127.812 40.492 127.282 40.7287C126.752 40.9702 126.112 41.0909 125.364 41.0909ZM144.773 37.2131C143.67 37.2131 142.716 36.9787 141.911 36.5099C141.111 36.0365 140.493 35.3783 140.057 34.5355C139.622 33.688 139.404 32.7055 139.404 31.5881C139.404 30.4612 139.622 29.4763 140.057 28.6335C140.493 27.786 141.111 27.1278 141.911 26.6591C142.716 26.1856 143.67 25.9489 144.773 25.9489C145.876 25.9489 146.828 26.1856 147.628 26.6591C148.433 27.1278 149.053 27.786 149.489 28.6335C149.925 29.4763 150.142 30.4612 150.142 31.5881C150.142 32.7055 149.925 33.688 149.489 34.5355C149.053 35.3783 148.433 36.0365 147.628 36.5099C146.828 36.9787 145.876 37.2131 144.773 37.2131ZM144.787 34.8693C145.289 34.8693 145.708 34.7273 146.044 34.4432C146.381 34.1544 146.634 33.7614 146.804 33.2642C146.98 32.767 147.067 32.2012 147.067 31.5668C147.067 30.9323 146.98 30.3665 146.804 29.8693C146.634 29.3722 146.381 28.9792 146.044 28.6903C145.708 28.4015 145.289 28.2571 144.787 28.2571C144.281 28.2571 143.855 28.4015 143.509 28.6903C143.168 28.9792 142.91 29.3722 142.735 29.8693C142.564 30.3665 142.479 30.9323 142.479 31.5668C142.479 32.2012 142.564 32.767 142.735 33.2642C142.91 33.7614 143.168 34.1544 143.509 34.4432C143.855 34.7273 144.281 34.8693 144.787 34.8693ZM152.11 37V26.0909H161.648V37H158.757V28.4702H154.965V37H152.11ZM163.424 37L163.409 34.5994H163.772C164.027 34.5994 164.248 34.5379 164.432 34.4148C164.622 34.2869 164.778 34.081 164.901 33.7969C165.024 33.5128 165.121 33.1364 165.192 32.6676C165.263 32.1941 165.31 31.6117 165.334 30.9205L165.512 26.0909H173.807V37H170.924V28.4702H168.232L168.061 31.8011C168.019 32.715 167.908 33.5009 167.728 34.1591C167.552 34.8172 167.309 35.357 166.996 35.7784C166.684 36.1951 166.307 36.5028 165.867 36.7017C165.426 36.9006 164.915 37 164.333 37H163.424ZM179.263 37.206C178.567 37.206 177.947 37.0852 177.403 36.8438C176.858 36.5975 176.427 36.2353 176.11 35.7571C175.798 35.2741 175.641 34.6728 175.641 33.9531C175.641 33.3471 175.753 32.8381 175.975 32.4261C176.198 32.0142 176.501 31.6828 176.884 31.4318C177.268 31.1809 177.703 30.9915 178.191 30.8636C178.683 30.7358 179.2 30.6458 179.739 30.5938C180.374 30.5275 180.885 30.4659 181.273 30.4091C181.662 30.3475 181.943 30.2576 182.119 30.1392C182.294 30.0208 182.381 29.8456 182.381 29.6136V29.571C182.381 29.1212 182.239 28.7732 181.955 28.527C181.676 28.2808 181.278 28.1577 180.762 28.1577C180.218 28.1577 179.784 28.2784 179.462 28.5199C179.14 28.7566 178.927 29.0549 178.823 29.4148L176.025 29.1875C176.167 28.5246 176.446 27.9517 176.863 27.4688C177.28 26.9811 177.817 26.607 178.475 26.3466C179.138 26.0814 179.905 25.9489 180.776 25.9489C181.382 25.9489 181.962 26.0199 182.516 26.1619C183.075 26.304 183.57 26.5241 184.001 26.8224C184.436 27.1207 184.78 27.5043 185.031 27.973C185.281 28.437 185.407 28.9934 185.407 29.642V37H182.538V35.4872H182.452C182.277 35.8281 182.043 36.1288 181.749 36.3892C181.456 36.6449 181.103 36.8461 180.691 36.9929C180.279 37.1349 179.803 37.206 179.263 37.206ZM180.13 35.1179C180.575 35.1179 180.968 35.0303 181.309 34.8551C181.65 34.6752 181.917 34.4337 182.112 34.1307C182.306 33.8277 182.403 33.4844 182.403 33.1009V31.9432C182.308 32.0047 182.178 32.0616 182.012 32.1136C181.851 32.161 181.669 32.206 181.465 32.2486C181.262 32.2865 181.058 32.322 180.854 32.3551C180.651 32.3835 180.466 32.4096 180.3 32.4332C179.945 32.4853 179.635 32.5682 179.37 32.6818C179.105 32.7955 178.899 32.9493 178.752 33.1435C178.605 33.3329 178.532 33.5696 178.532 33.8537C178.532 34.2656 178.681 34.5805 178.979 34.7983C179.282 35.0114 179.666 35.1179 180.13 35.1179ZM197.222 26.0909V37H194.352V26.0909H197.222ZM195.822 30.8778V33.2642C195.59 33.3684 195.302 33.4678 194.956 33.5625C194.61 33.6525 194.248 33.7259 193.869 33.7827C193.491 33.8395 193.135 33.8679 192.804 33.8679C191.237 33.8679 190.003 33.5459 189.104 32.902C188.204 32.2533 187.754 31.2187 187.754 29.7983V26.0767H190.609V29.7983C190.609 30.2197 190.68 30.5535 190.822 30.7997C190.969 31.0459 191.201 31.2235 191.518 31.3324C191.84 31.4366 192.269 31.4886 192.804 31.4886C193.301 31.4886 193.789 31.4366 194.267 31.3324C194.745 31.2282 195.264 31.0767 195.822 30.8778ZM202.461 33.0085L206.389 26.0909H209.372V37H206.488V30.0611L202.575 37H199.571V26.0909H202.461V33.0085ZM211.797 37V26.0909H216.449C217.794 26.0909 218.857 26.3466 219.638 26.858C220.419 27.3693 220.81 28.0961 220.81 29.0384C220.81 29.6302 220.59 30.1226 220.15 30.5156C219.709 30.9086 219.098 31.1738 218.317 31.3111C218.971 31.3584 219.527 31.5076 219.986 31.7585C220.45 32.0047 220.803 32.3243 221.044 32.7173C221.291 33.1103 221.414 33.5459 221.414 34.0241C221.414 34.6444 221.248 35.1771 220.917 35.6222C220.59 36.0672 220.109 36.4081 219.475 36.6449C218.845 36.8816 218.076 37 217.167 37H211.797ZM214.617 34.7344H217.167C217.588 34.7344 217.917 34.6349 218.154 34.4361C218.395 34.2325 218.516 33.9555 218.516 33.6051C218.516 33.2169 218.395 32.9115 218.154 32.6889C217.917 32.4664 217.588 32.3551 217.167 32.3551H214.617V34.7344ZM214.617 30.5795H216.513C216.816 30.5795 217.074 30.5369 217.287 30.4517C217.505 30.3617 217.671 30.2339 217.784 30.0682C217.903 29.9025 217.962 29.706 217.962 29.4787C217.962 29.1425 217.827 28.8797 217.557 28.6903C217.287 28.5009 216.918 28.4062 216.449 28.4062H214.617V30.5795ZM226.431 37.206C225.735 37.206 225.115 37.0852 224.571 36.8438C224.026 36.5975 223.595 36.2353 223.278 35.7571C222.966 35.2741 222.809 34.6728 222.809 33.9531C222.809 33.3471 222.921 32.8381 223.143 32.4261C223.366 32.0142 223.669 31.6828 224.052 31.4318C224.436 31.1809 224.871 30.9915 225.359 30.8636C225.851 30.7358 226.368 30.6458 226.907 30.5938C227.542 30.5275 228.053 30.4659 228.441 30.4091C228.83 30.3475 229.111 30.2576 229.287 30.1392C229.462 30.0208 229.549 29.8456 229.549 29.6136V29.571C229.549 29.1212 229.407 28.7732 229.123 28.527C228.844 28.2808 228.446 28.1577 227.93 28.1577C227.386 28.1577 226.952 28.2784 226.63 28.5199C226.308 28.7566 226.095 29.0549 225.991 29.4148L223.193 29.1875C223.335 28.5246 223.614 27.9517 224.031 27.4688C224.448 26.9811 224.985 26.607 225.643 26.3466C226.306 26.0814 227.073 25.9489 227.944 25.9489C228.55 25.9489 229.13 26.0199 229.684 26.1619C230.243 26.304 230.738 26.5241 231.169 26.8224C231.604 27.1207 231.948 27.5043 232.199 27.973C232.449 28.437 232.575 28.9934 232.575 29.642V37H229.706V35.4872H229.62C229.445 35.8281 229.211 36.1288 228.917 36.3892C228.624 36.6449 228.271 36.8461 227.859 36.9929C227.447 37.1349 226.971 37.206 226.431 37.206ZM227.298 35.1179C227.743 35.1179 228.136 35.0303 228.477 34.8551C228.818 34.6752 229.085 34.4337 229.279 34.1307C229.474 33.8277 229.571 33.4844 229.571 33.1009V31.9432C229.476 32.0047 229.346 32.0616 229.18 32.1136C229.019 32.161 228.837 32.206 228.633 32.2486C228.43 32.2865 228.226 32.322 228.022 32.3551C227.819 32.3835 227.634 32.4096 227.468 32.4332C227.113 32.4853 226.803 32.5682 226.538 32.6818C226.273 32.7955 226.067 32.9493 225.92 33.1435C225.773 33.3329 225.7 33.5696 225.7 33.8537C225.7 34.2656 225.849 34.5805 226.147 34.7983C226.45 35.0114 226.834 35.1179 227.298 35.1179ZM239.894 37.2131C238.772 37.2131 237.806 36.9858 236.996 36.5312C236.191 36.072 235.571 35.4233 235.135 34.5852C234.7 33.7424 234.482 32.7457 234.482 31.5952C234.482 30.473 234.7 29.4882 235.135 28.6406C235.571 27.7931 236.184 27.1326 236.975 26.6591C237.77 26.1856 238.703 25.9489 239.773 25.9489C240.493 25.9489 241.163 26.0649 241.783 26.2969C242.408 26.5241 242.953 26.8674 243.417 27.3267C243.885 27.786 244.25 28.3636 244.51 29.0597C244.771 29.7509 244.901 30.5606 244.901 31.4886V32.3196H235.689V30.4446H242.053C242.053 30.009 241.958 29.6231 241.769 29.2869C241.579 28.9508 241.317 28.688 240.98 28.4986C240.649 28.3045 240.263 28.2074 239.823 28.2074C239.364 28.2074 238.956 28.3139 238.601 28.527C238.251 28.7353 237.976 29.017 237.777 29.3722C237.578 29.7225 237.477 30.1132 237.472 30.544V32.3267C237.472 32.8665 237.571 33.3329 237.77 33.7259C237.974 34.1188 238.26 34.4219 238.63 34.6349C238.999 34.848 239.437 34.9545 239.944 34.9545C240.28 34.9545 240.587 34.9072 240.867 34.8125C241.146 34.7178 241.385 34.5758 241.584 34.3864C241.783 34.197 241.935 33.965 242.039 33.6903L244.837 33.875C244.695 34.5473 244.404 35.1345 243.963 35.6364C243.528 36.1335 242.964 36.5218 242.273 36.8011C241.587 37.0758 240.793 37.2131 239.894 37.2131ZM246.034 28.4702V26.0909H255.92V28.4702H252.404V37H249.521V28.4702H246.034ZM262.383 37V26.0909H271.922V37H269.031V28.4702H265.238V37H262.383ZM277.447 37.206C276.751 37.206 276.131 37.0852 275.586 36.8438C275.042 36.5975 274.611 36.2353 274.294 35.7571C273.981 35.2741 273.825 34.6728 273.825 33.9531C273.825 33.3471 273.936 32.8381 274.159 32.4261C274.381 32.0142 274.684 31.6828 275.068 31.4318C275.451 31.1809 275.887 30.9915 276.375 30.8636C276.867 30.7358 277.383 30.6458 277.923 30.5938C278.557 30.5275 279.069 30.4659 279.457 30.4091C279.845 30.3475 280.127 30.2576 280.302 30.1392C280.477 30.0208 280.565 29.8456 280.565 29.6136V29.571C280.565 29.1212 280.423 28.7732 280.139 28.527C279.859 28.2808 279.462 28.1577 278.946 28.1577C278.401 28.1577 277.968 28.2784 277.646 28.5199C277.324 28.7566 277.111 29.0549 277.007 29.4148L274.208 29.1875C274.35 28.5246 274.63 27.9517 275.047 27.4688C275.463 26.9811 276.001 26.607 276.659 26.3466C277.322 26.0814 278.089 25.9489 278.96 25.9489C279.566 25.9489 280.146 26.0199 280.7 26.1619C281.259 26.304 281.753 26.5241 282.184 26.8224C282.62 27.1207 282.963 27.5043 283.214 27.973C283.465 28.437 283.591 28.9934 283.591 29.642V37H280.721V35.4872H280.636C280.461 35.8281 280.226 36.1288 279.933 36.3892C279.639 36.6449 279.287 36.8461 278.875 36.9929C278.463 37.1349 277.987 37.206 277.447 37.206ZM278.314 35.1179C278.759 35.1179 279.152 35.0303 279.493 34.8551C279.833 34.6752 280.101 34.4337 280.295 34.1307C280.489 33.8277 280.586 33.4844 280.586 33.1009V31.9432C280.492 32.0047 280.361 32.0616 280.196 32.1136C280.035 32.161 279.852 32.206 279.649 32.2486C279.445 32.2865 279.242 32.322 279.038 32.3551C278.834 32.3835 278.65 32.4096 278.484 32.4332C278.129 32.4853 277.819 32.5682 277.554 32.6818C277.288 32.7955 277.083 32.9493 276.936 33.1435C276.789 33.3329 276.716 33.5696 276.716 33.8537C276.716 34.2656 276.865 34.5805 277.163 34.7983C277.466 35.0114 277.85 35.1179 278.314 35.1179ZM285.938 41.0909V26.0909H288.921V27.9233H289.056C289.188 27.6297 289.38 27.3314 289.631 27.0284C289.887 26.7206 290.218 26.465 290.625 26.2614C291.037 26.053 291.549 25.9489 292.159 25.9489C292.955 25.9489 293.689 26.1572 294.361 26.5739C295.033 26.9858 295.571 27.6084 295.973 28.4418C296.376 29.2704 296.577 30.3097 296.577 31.5597C296.577 32.7765 296.381 33.804 295.988 34.642C295.599 35.4754 295.069 36.1075 294.397 36.5384C293.729 36.9645 292.981 37.1776 292.152 37.1776C291.565 37.1776 291.066 37.0805 290.654 36.8864C290.247 36.6922 289.913 36.4484 289.652 36.1548C289.392 35.8565 289.193 35.5559 289.056 35.2528H288.963V41.0909H285.938ZM288.9 31.5455C288.9 32.1941 288.989 32.7599 289.169 33.2429C289.349 33.7259 289.61 34.1023 289.951 34.3722C290.292 34.6373 290.706 34.7699 291.194 34.7699C291.686 34.7699 292.103 34.6349 292.444 34.3651C292.784 34.0904 293.042 33.7116 293.218 33.2287C293.398 32.741 293.488 32.1799 293.488 31.5455C293.488 30.9157 293.4 30.3617 293.225 29.8835C293.05 29.4053 292.792 29.0312 292.451 28.7614C292.11 28.4915 291.691 28.3565 291.194 28.3565C290.701 28.3565 290.284 28.4867 289.944 28.7472C289.607 29.0076 289.349 29.3769 289.169 29.8551C288.989 30.3333 288.9 30.8968 288.9 31.5455ZM297.538 28.4702V26.0909H307.424V28.4702H303.908V37H301.025V28.4702H297.538ZM316.85 30.3381V32.7173H311.154V30.3381H316.85ZM312.149 26.0909V37H309.258V26.0909H312.149ZM318.747 26.0909V37H315.877V26.0909H318.747ZM326.066 37.2131C324.944 37.2131 323.978 36.9858 323.168 36.5312C322.363 36.072 321.743 35.4233 321.307 34.5852C320.872 33.7424 320.654 32.7457 320.654 31.5952C320.654 30.473 320.872 29.4882 321.307 28.6406C321.743 27.7931 322.356 27.1326 323.147 26.6591C323.942 26.1856 324.875 25.9489 325.945 25.9489C326.665 25.9489 327.335 26.0649 327.955 26.2969C328.58 26.5241 329.124 26.8674 329.588 27.3267C330.057 27.786 330.422 28.3636 330.682 29.0597C330.943 29.7509 331.073 30.5606 331.073 31.4886V32.3196H321.861V30.4446H328.225C328.225 30.009 328.13 29.6231 327.941 29.2869C327.751 28.9508 327.489 28.688 327.152 28.4986C326.821 28.3045 326.435 28.2074 325.995 28.2074C325.535 28.2074 325.128 28.3139 324.773 28.527C324.423 28.7353 324.148 29.017 323.949 29.3722C323.75 29.7225 323.649 30.1132 323.644 30.544V32.3267C323.644 32.8665 323.743 33.3329 323.942 33.7259C324.146 34.1188 324.432 34.4219 324.801 34.6349C325.171 34.848 325.609 34.9545 326.115 34.9545C326.452 34.9545 326.759 34.9072 327.039 34.8125C327.318 34.7178 327.557 34.5758 327.756 34.3864C327.955 34.197 328.106 33.965 328.211 33.6903L331.009 33.875C330.867 34.5473 330.576 35.1345 330.135 35.6364C329.7 36.1335 329.136 36.5218 328.445 36.8011C327.758 37.0758 326.965 37.2131 326.066 37.2131ZM333.047 41.0909V26.0909H336.03V27.9233H336.165C336.298 27.6297 336.489 27.3314 336.74 27.0284C336.996 26.7206 337.328 26.465 337.735 26.2614C338.147 26.053 338.658 25.9489 339.269 25.9489C340.064 25.9489 340.798 26.1572 341.471 26.5739C342.143 26.9858 342.68 27.6084 343.083 28.4418C343.485 29.2704 343.686 30.3097 343.686 31.5597C343.686 32.7765 343.49 33.804 343.097 34.642C342.709 35.4754 342.178 36.1075 341.506 36.5384C340.838 36.9645 340.09 37.1776 339.262 37.1776C338.675 37.1776 338.175 37.0805 337.763 36.8864C337.356 36.6922 337.022 36.4484 336.762 36.1548C336.501 35.8565 336.302 35.5559 336.165 35.2528H336.073V41.0909H333.047ZM336.009 31.5455C336.009 32.1941 336.099 32.7599 336.279 33.2429C336.459 33.7259 336.719 34.1023 337.06 34.3722C337.401 34.6373 337.815 34.7699 338.303 34.7699C338.795 34.7699 339.212 34.6349 339.553 34.3651C339.894 34.0904 340.152 33.7116 340.327 33.2287C340.507 32.741 340.597 32.1799 340.597 31.5455C340.597 30.9157 340.509 30.3617 340.334 29.8835C340.159 29.4053 339.901 29.0312 339.56 28.7614C339.219 28.4915 338.8 28.3565 338.303 28.3565C337.81 28.3565 337.394 28.4867 337.053 28.7472C336.717 29.0076 336.459 29.3769 336.279 29.8551C336.099 30.3333 336.009 30.8968 336.009 31.5455Z" fill="#171717"/>
<rect x="1" y="1" width="376" height="58" rx="9" stroke="#171717" stroke-width="2"/>
</svg>
