<svg width="35" height="35" viewBox="0 0 35 35" fill="none" xmlns="http://www.w3.org/2000/svg">
<path d="M16.1638 16.2931H18.8362V5.43104H16.1638V16.2931ZM17.5 22.3707C17.931 22.3707 18.2974 22.227 18.5991 21.9397C18.9009 21.6523 19.0517 21.2931 19.0517 20.8621C19.0517 20.4023 18.9009 20.0287 18.5991 19.7414C18.2974 19.454 17.931 19.3103 17.5 19.3103C17.069 19.3103 16.7026 19.454 16.4009 19.7414C16.0991 20.0287 15.9483 20.3879 15.9483 20.819C15.9483 21.2787 16.0991 21.6523 16.4009 21.9397C16.7026 22.227 17.069 22.3707 17.5 22.3707ZM0 35V2.93103C0 2.15517 0.29454 1.4727 0.883621 0.883621C1.4727 0.29454 2.15517 0 2.93103 0H32.069C32.8448 0 33.5273 0.29454 34.1164 0.883621C34.7055 1.4727 35 2.15517 35 2.93103V25.1724C35 25.9195 34.7055 26.5948 34.1164 27.1983C33.5273 27.8017 32.8448 28.1034 32.069 28.1034H6.89655L0 35Z" fill="#20CB83"/>
</svg>
