<svg width="30" height="32" viewBox="0 0 30 32" fill="none" xmlns="http://www.w3.org/2000/svg">
<path d="M2.91424 32C2.18282 32 1.54281 31.7257 0.994244 31.1771C0.445672 30.6286 0.171387 29.9886 0.171387 29.2571V2.74286C0.171387 2.01143 0.445672 1.37143 0.994244 0.822857C1.54281 0.274286 2.18282 0 2.91424 0H26.6857C27.4171 0 28.0571 0.274286 28.6057 0.822857C29.1542 1.37143 29.4285 2.01143 29.4285 2.74286V29.2571C29.4285 29.9886 29.1542 30.6286 28.6057 31.1771C28.0571 31.7257 27.4171 32 26.6857 32H2.91424ZM5.83996 24.8229H23.9885L18.1371 17.0057L13.3371 23.2229L10.1371 19.2L5.83996 24.8229ZM13.9314 14.9029L18.3657 12.3429L22.8 14.9029V2.74286H13.9314V14.9029Z" fill="#969696"/>
</svg>
