<svg width="428" height="350" viewBox="0 0 428 350" fill="none" xmlns="http://www.w3.org/2000/svg">
<g clip-path="url(#clip0_1035_893)">
<rect width="428" height="447" fill="url(#paint0_angular_1035_893)"/>
<g opacity="0.8">
<path d="M4.02979 74H3.57912V74.4507H4.02979V74ZM4.02979 7.54192V7.09125H3.57912V7.54192H4.02979ZM44.2356 9.65118L44.0613 10.0668L44.0623 10.0672L44.2356 9.65118ZM51.829 15.5571L51.454 15.8071L51.4555 15.8093L51.829 15.5571ZM52.8025 31.1332L53.1993 31.3469L53.2003 31.3451L52.8025 31.1332ZM48.4217 36.0332L48.1638 35.6636L48.4217 36.0332ZM41.9641 38.759L41.8705 38.3182L41.5134 38.394V38.759H41.9641ZM41.9641 39.408H41.5134V39.8374L41.9423 39.8582L41.9641 39.408ZM49.3952 41.5822L49.1688 41.9719L49.1704 41.9728L49.3952 41.5822ZM54.9118 47.0988L54.5231 47.3269L54.5241 47.3285L54.9118 47.0988ZM54.2628 64.9788L54.6404 65.2248L54.6413 65.2234L54.2628 64.9788ZM46.3773 71.5987L46.5675 72.0073L46.5696 72.0063L46.3773 71.5987ZM20.0927 61.0524H19.642V61.503H20.0927V61.0524ZM37.7131 59.0729L37.4333 58.7196L37.431 58.7214L37.7131 59.0729ZM39.0111 49.1431L38.6312 49.3855L38.6331 49.3885L39.0111 49.1431ZM35.6039 46.2551L35.412 46.6628L35.4169 46.6651L35.6039 46.2551ZM20.0927 45.2166V44.766H19.642V45.2166H20.0927ZM20.0927 34.865H19.642V35.3157H20.0927V34.865ZM36.837 31.4577L36.4688 31.1978L36.4654 31.2027L36.837 31.4577ZM35.6363 22.2094L35.9196 21.8589L35.6363 22.2094ZM20.0927 20.2949V19.8442H19.642V20.2949H20.0927ZM4.48045 74V7.54192H3.57912V74H4.48045ZM4.02979 7.99258H31.7423V7.09125H4.02979V7.99258ZM31.7423 7.99258C36.6788 7.99258 40.7796 8.69059 44.0613 10.0668L44.4099 9.23558C40.9852 7.79942 36.7572 7.09125 31.7423 7.09125V7.99258ZM44.0623 10.0672C47.3718 11.4461 49.8252 13.3638 51.454 15.8071L52.204 15.3071C50.458 12.6882 47.8491 10.6686 44.409 9.23518L44.0623 10.0672ZM51.4555 15.8093C53.1097 18.2592 53.9419 21.1009 53.9419 24.3511H54.8432C54.8432 20.9382 53.9664 17.9173 52.2025 15.3049L51.4555 15.8093ZM53.9419 24.3511C53.9419 26.8176 53.426 29.004 52.4047 30.9214L53.2003 31.3451C54.2991 29.282 54.8432 26.947 54.8432 24.3511H53.9419ZM52.4057 30.9196C51.3796 32.8251 49.9673 34.4054 48.1638 35.6636L48.6796 36.4028C50.5971 35.065 52.1053 33.3786 53.1993 31.3469L52.4057 30.9196ZM48.1638 35.6636C46.3576 36.9238 44.2621 37.8102 41.8705 38.3182L42.0577 39.1999C44.5553 38.6694 46.7649 37.7387 48.6796 36.4028L48.1638 35.6636ZM41.5134 38.759V39.408H42.4148V38.759H41.5134ZM41.9423 39.8582C44.5545 39.9846 46.9611 40.6893 49.1688 41.9719L49.6216 41.1925C47.2863 39.8358 44.7388 39.0911 41.9859 38.9579L41.9423 39.8582ZM49.1704 41.9728C51.3935 43.2521 53.1768 45.034 54.5231 47.3269L55.3004 46.8706C53.8776 44.4474 51.9833 42.5516 49.62 41.1916L49.1704 41.9728ZM54.5241 47.3285C55.8605 49.5838 56.5379 52.2705 56.5379 55.406H57.4392C57.4392 52.138 56.7321 49.2865 55.2995 46.869L54.5241 47.3285ZM56.5379 55.406C56.5379 58.8948 55.6512 61.9997 53.8842 64.7343L54.6413 65.2234C56.5087 62.3333 57.4392 59.0563 57.4392 55.406H56.5379ZM53.8851 64.7329C52.1197 67.4441 49.5602 69.5991 46.1851 71.1911L46.5696 72.0063C50.074 70.3533 52.7714 68.095 54.6404 65.2248L53.8851 64.7329ZM46.1872 71.1901C42.8218 72.7564 38.7152 73.5493 33.8516 73.5493V74.4507C38.8095 74.4507 43.0534 73.6428 46.5675 72.0073L46.1872 71.1901ZM33.8516 73.5493H4.02979V74.4507H33.8516V73.5493ZM20.0927 61.503H30.0224V60.6017H20.0927V61.503ZM30.0224 61.503C33.5464 61.503 36.2335 60.8383 37.9952 59.4244L37.431 58.7214C35.9044 59.9467 33.4644 60.6017 30.0224 60.6017V61.503ZM37.993 59.4261C39.7795 58.0109 40.6625 56.0349 40.6625 53.5564H39.7611C39.7611 55.7939 38.9784 57.4956 37.4333 58.7196L37.993 59.4261ZM40.6625 53.5564C40.6625 51.7747 40.2443 50.2152 39.3891 48.8977L38.6331 49.3885C39.3788 50.5373 39.7611 51.9199 39.7611 53.5564H40.6625ZM39.3911 48.9007C38.5398 47.5663 37.3339 46.5485 35.7908 45.845L35.4169 46.6651C36.8159 47.3029 37.8816 48.2104 38.6312 49.3855L39.3911 48.9007ZM35.7958 45.8473C34.251 45.1203 32.419 44.766 30.3145 44.766V45.6673C32.3203 45.6673 34.0146 46.0052 35.412 46.6628L35.7958 45.8473ZM30.3145 44.766H20.0927V45.6673H30.3145V44.766ZM19.642 45.2166V61.0524H20.5433V45.2166H19.642ZM20.0927 35.3157H28.984V34.4143H20.0927V35.3157ZM28.984 35.3157C30.7864 35.3157 32.4061 35.0152 33.8344 34.4031L33.4793 33.5746C32.1818 34.1307 30.6862 34.4143 28.984 34.4143V35.3157ZM33.8344 34.4031C35.267 33.7891 36.398 32.8939 37.2086 31.7127L36.4654 31.2027C35.7617 32.2282 34.7725 33.0204 33.4793 33.5746L33.8344 34.4031ZM37.2052 31.7176C38.0456 30.5271 38.4558 29.1023 38.4558 27.4664H37.5545C37.5545 28.9457 37.186 30.1818 36.4688 31.1978L37.2052 31.7176ZM38.4558 27.4664C38.4558 25.1171 37.6159 23.2299 35.9196 21.8589L35.353 22.5599C36.8152 23.7417 37.5545 25.3591 37.5545 27.4664H38.4558ZM35.9196 21.8589C34.2376 20.4995 31.996 19.8442 29.2436 19.8442V20.7455C31.8564 20.7455 33.8765 21.3666 35.353 22.5599L35.9196 21.8589ZM29.2436 19.8442H20.0927V20.7455H29.2436V19.8442ZM19.642 20.2949V34.865H20.5433V20.2949H19.642ZM64.7117 74H64.2611V74.4507H64.7117V74ZM64.7117 7.54192V7.09125H64.2611V7.54192H64.7117ZM111.051 7.54192H111.501V7.09125H111.051V7.54192ZM111.051 20.5869V21.0376H111.501V20.5869H111.051ZM80.7746 20.5869V20.1362H80.3239V20.5869H80.7746ZM80.7746 34.216H80.3239V34.6667H80.7746V34.216ZM108.682 34.216H109.132V33.7653H108.682V34.216ZM108.682 47.2935V47.7441H109.132V47.2935H108.682ZM80.7746 47.2935V46.8428H80.3239V47.2935H80.7746ZM80.7746 60.955H80.3239V61.4057H80.7746V60.955ZM111.051 60.955H111.501V60.5043H111.051V60.955ZM111.051 74V74.4507H111.501V74H111.051ZM65.1624 74V7.54192H64.2611V74H65.1624ZM64.7117 7.99258H111.051V7.09125H64.7117V7.99258ZM110.6 7.54192V20.5869H111.501V7.54192H110.6ZM111.051 20.1362H80.7746V21.0376H111.051V20.1362ZM80.3239 20.5869V34.216H81.2253V20.5869H80.3239ZM80.7746 34.6667H108.682V33.7653H80.7746V34.6667ZM108.231 34.216V47.2935H109.132V34.216H108.231ZM108.682 46.8428H80.7746V47.7441H108.682V46.8428ZM80.3239 47.2935V60.955H81.2253V47.2935H80.3239ZM80.7746 61.4057H111.051V60.5043H80.7746V61.4057ZM110.6 60.955V74H111.501V60.955H110.6ZM111.051 73.5493H64.7117V74.4507H111.051V73.5493ZM121.11 74H120.66V74.4507H121.11V74ZM121.11 7.54192V7.09125H120.66V7.54192H121.11ZM137.173 7.54192H137.624V7.09125H137.173V7.54192ZM137.173 60.955H136.722V61.4057H137.173V60.955ZM164.821 60.955H165.271V60.5043H164.821V60.955ZM164.821 74V74.4507H165.271V74H164.821ZM121.561 74V7.54192H120.66V74H121.561ZM121.11 7.99258H137.173V7.09125H121.11V7.99258ZM136.722 7.54192V60.955H137.624V7.54192H136.722ZM137.173 61.4057H164.821V60.5043H137.173V61.4057ZM164.37 60.955V74H165.271V60.955H164.37ZM164.821 73.5493H121.11V74.4507H164.821V73.5493ZM229.056 59.3649L228.662 59.1468L229.056 59.3649ZM217.633 70.9497L217.416 70.5547L217.416 70.5551L217.633 70.9497ZM185.41 70.9172L185.63 70.5234L185.41 70.9172ZM174.02 59.3325L173.625 59.5494L173.626 59.5514L174.02 59.3325ZM174.02 22.177L173.626 21.9588L173.625 21.9601L174.02 22.177ZM185.41 10.5922L185.628 10.9868L185.41 10.5922ZM217.633 10.5922L217.416 10.9868L217.416 10.9872L217.633 10.5922ZM229.056 22.177L228.662 22.3951L229.056 22.177ZM215.005 29.8028L214.587 29.9722L214.588 29.9748L215.005 29.8028ZM209.748 23.0207L209.496 23.394L209.497 23.3951L209.748 23.0207ZM193.328 23.0207L193.579 23.3951L193.328 23.0207ZM188.039 29.8028L187.622 29.6307L187.621 29.6333L188.039 29.8028ZM188.039 51.7391L187.621 51.9086L187.622 51.9112L188.039 51.7391ZM193.328 58.5212L193.579 58.1468L193.328 58.5212ZM209.748 58.5212L209.497 58.1468L209.496 58.1479L209.748 58.5212ZM215.005 51.7391L214.588 51.5671L214.587 51.5697L215.005 51.7391ZM232.824 40.771C232.824 48.0261 231.429 54.1448 228.662 59.1468L229.45 59.5831C232.308 54.4173 233.725 48.14 233.725 40.771H232.824ZM228.662 59.1468C225.888 64.1609 222.14 67.9589 217.416 70.5547L217.85 71.3446C222.732 68.6618 226.599 64.7368 229.45 59.5831L228.662 59.1468ZM217.416 70.5551C212.707 73.1544 207.418 74.4579 201.538 74.4579V75.3593C207.557 75.3593 212.998 74.0236 217.851 71.3442L217.416 70.5551ZM201.538 74.4579C195.637 74.4579 190.337 73.1437 185.63 70.5234L185.191 71.311C190.045 74.0126 195.498 75.3593 201.538 75.3593V74.4579ZM185.63 70.5234C180.926 67.9058 177.188 64.1069 174.414 59.1136L173.626 59.5514C176.477 64.6826 180.332 68.6068 185.191 71.311L185.63 70.5234ZM174.415 59.1156C171.669 54.1132 170.285 48.0048 170.285 40.771H169.384C169.384 48.1181 170.79 54.3841 173.625 59.5494L174.415 59.1156ZM170.285 40.771C170.285 33.5153 171.669 27.3961 174.415 22.3938L173.625 21.9601C170.79 27.1256 169.384 33.4024 169.384 40.771H170.285ZM174.415 22.3951C177.189 17.3805 180.926 13.5824 185.628 10.9868L185.193 10.1977C180.332 12.8806 176.477 16.8057 173.626 21.9588L174.415 22.3951ZM185.628 10.9868C190.336 8.38768 195.636 7.08398 201.538 7.08398V6.18264C195.498 6.18264 190.046 7.51823 185.193 10.1977L185.628 10.9868ZM201.538 7.08398C207.418 7.08398 212.707 8.38755 217.416 10.9868L217.851 10.1977C212.998 7.51836 207.557 6.18264 201.538 6.18264V7.08398ZM217.416 10.9872C222.14 13.583 225.888 17.3811 228.662 22.3951L229.45 21.9588C226.599 16.8051 222.732 12.8801 217.85 10.1973L217.416 10.9872ZM228.662 22.3951C231.429 27.3971 232.824 33.5158 232.824 40.771H233.725C233.725 33.4019 232.308 27.1246 229.45 21.9588L228.662 22.3951ZM217.305 40.771C217.305 36.4041 216.683 32.6858 215.422 29.6307L214.588 29.9748C215.793 32.8906 216.404 36.4844 216.404 40.771H217.305ZM215.423 29.6333C214.183 26.5788 212.379 24.2403 209.999 22.6462L209.497 23.3951C211.704 24.873 213.404 27.056 214.587 29.9722L215.423 29.6333ZM210 22.6474C207.643 21.053 204.814 20.266 201.538 20.266V21.1674C204.665 21.1674 207.31 21.9164 209.496 23.394L210 22.6474ZM201.538 20.266C198.283 20.266 195.456 21.0533 193.077 22.6462L193.579 23.3951C195.787 21.9161 198.433 21.1674 201.538 21.1674V20.266ZM193.077 22.6462C190.698 24.2398 188.883 26.5773 187.622 29.6307L188.455 29.9748C189.66 27.0574 191.372 24.8735 193.579 23.3951L193.077 22.6462ZM187.621 29.6333C186.382 32.6876 185.771 36.4049 185.771 40.771H186.672C186.672 36.4836 187.273 32.8888 188.456 29.9722L187.621 29.6333ZM185.771 40.771C185.771 45.137 186.382 48.8543 187.621 51.9086L188.456 51.5697C187.273 48.6531 186.672 45.0583 186.672 40.771H185.771ZM187.622 51.9112C188.883 54.9646 190.698 57.3021 193.077 58.8957L193.579 58.1468C191.372 56.6684 189.66 54.4845 188.455 51.5671L187.622 51.9112ZM193.077 58.8957C195.456 60.4886 198.283 61.2759 201.538 61.2759V60.3745C198.433 60.3745 195.787 59.6258 193.579 58.1468L193.077 58.8957ZM201.538 61.2759C204.814 61.2759 207.643 60.489 210 58.8946L209.496 58.1479C207.31 59.6255 204.665 60.3745 201.538 60.3745V61.2759ZM209.999 58.8957C212.379 57.3016 214.183 54.9632 215.423 51.9086L214.587 51.5697C213.404 54.486 211.704 56.6689 209.497 58.1468L209.999 58.8957ZM215.422 51.9112C216.683 48.8561 217.305 45.1378 217.305 40.771H216.404C216.404 45.0575 215.793 48.6513 214.588 51.5671L215.422 51.9112ZM253.815 7.54192L254.246 7.41031L254.149 7.09125H253.815V7.54192ZM268.678 56.2173L268.247 56.3489L268.344 56.6679H268.678V56.2173ZM269.229 56.2173V56.6679H269.563L269.66 56.3489L269.229 56.2173ZM284.092 7.54192V7.09125H283.758L283.661 7.41031L284.092 7.54192ZM302.069 7.54192L302.496 7.686L302.697 7.09125H302.069V7.54192ZM279.646 74V74.4507H279.969L280.073 74.1441L279.646 74ZM258.261 74L257.834 74.1441L257.938 74.4507H258.261V74ZM235.838 7.54192V7.09125H235.21L235.411 7.686L235.838 7.54192ZM253.384 7.67352L268.247 56.3489L269.109 56.0857L254.246 7.41031L253.384 7.67352ZM268.678 56.6679H269.229V55.7666H268.678V56.6679ZM269.66 56.3489L284.523 7.67352L283.661 7.41031L268.798 56.0857L269.66 56.3489ZM284.092 7.99258H302.069V7.09125H284.092V7.99258ZM301.642 7.39784L279.219 73.8559L280.073 74.1441L302.496 7.686L301.642 7.39784ZM279.646 73.5493H258.261V74.4507H279.646V73.5493ZM258.688 73.8559L236.265 7.39784L235.411 7.686L257.834 74.1441L258.688 73.8559ZM235.838 7.99258H253.815V7.09125H235.838V7.99258ZM309.224 74H308.774V74.4507H309.224V74ZM309.224 7.54192V7.09125H308.774V7.54192H309.224ZM355.563 7.54192H356.014V7.09125H355.563V7.54192ZM355.563 20.5869V21.0376H356.014V20.5869H355.563ZM325.287 20.5869V20.1362H324.836V20.5869H325.287ZM325.287 34.216H324.836V34.6667H325.287V34.216ZM353.194 34.216H353.645V33.7653H353.194V34.216ZM353.194 47.2935V47.7441H353.645V47.2935H353.194ZM325.287 47.2935V46.8428H324.836V47.2935H325.287ZM325.287 60.955H324.836V61.4057H325.287V60.955ZM355.563 60.955H356.014V60.5043H355.563V60.955ZM355.563 74V74.4507H356.014V74H355.563ZM309.675 74V7.54192H308.774V74H309.675ZM309.224 7.99258H355.563V7.09125H309.224V7.99258ZM355.113 7.54192V20.5869H356.014V7.54192H355.113ZM355.563 20.1362H325.287V21.0376H355.563V20.1362ZM324.836 20.5869V34.216H325.738V20.5869H324.836ZM325.287 34.6667H353.194V33.7653H325.287V34.6667ZM352.744 34.216V47.2935H353.645V34.216H352.744ZM353.194 46.8428H325.287V47.7441H353.194V46.8428ZM324.836 47.2935V60.955H325.738V47.2935H324.836ZM325.287 61.4057H355.563V60.5043H325.287V61.4057ZM355.113 60.955V74H356.014V60.955H355.113ZM355.563 73.5493H309.224V74.4507H355.563V73.5493ZM365.623 74H365.172V74.4507H365.623V74ZM365.623 7.54192V7.09125H365.172V7.54192H365.623ZM407.646 11.5333L407.43 11.9291L407.432 11.9303L407.646 11.5333ZM419.003 22.9558L418.606 23.1683L418.606 23.169L419.003 22.9558ZM419.003 58.5861L418.606 58.3736L418.605 58.375L419.003 58.5861ZM407.678 70.0411L407.892 70.438L407.893 70.4373L407.678 70.0411ZM381.686 60.306H381.235V60.7567H381.686V60.306ZM399.014 58.4239L399.211 58.829L399.213 58.8283L399.014 58.4239ZM404.888 52.2259L404.479 52.0355L404.478 52.0368L404.888 52.2259ZM404.888 29.316L404.48 29.5076L404.48 29.5088L404.888 29.316ZM398.949 23.1505L398.75 23.5549L398.754 23.5569L398.949 23.1505ZM381.686 21.2359V20.7852H381.235V21.2359H381.686ZM390.188 73.5493H365.623V74.4507H390.188V73.5493ZM366.073 74V7.54192H365.172V74H366.073ZM365.623 7.99258H390.155V7.09125H365.623V7.99258ZM390.155 7.99258C396.867 7.99258 402.62 9.3112 407.43 11.9291L407.861 11.1375C402.893 8.43356 396.986 7.09125 390.155 7.09125V7.99258ZM407.432 11.9303C412.264 14.527 415.986 18.2699 418.606 23.1683L419.401 22.7433C416.699 17.6903 412.849 13.8182 407.859 11.1363L407.432 11.9303ZM418.606 23.169C421.225 28.0442 422.544 33.8951 422.544 40.7385H423.445C423.445 33.7797 422.104 27.7755 419.4 22.7425L418.606 23.169ZM422.544 40.7385C422.544 47.6037 421.225 53.4765 418.606 58.3736L419.401 58.7987C422.104 53.7443 423.445 47.7188 423.445 40.7385H422.544ZM418.605 58.375C416.007 63.273 412.296 67.0266 407.464 69.6448L407.893 70.4373C412.882 67.7337 416.721 63.8507 419.402 58.7973L418.605 58.375ZM407.465 69.6441C402.632 72.2414 396.878 73.5493 390.188 73.5493V74.4507C396.996 74.4507 402.903 73.1193 407.892 70.438L407.465 69.6441ZM381.686 60.7567H389.571V59.8553H381.686V60.7567ZM389.571 60.7567C393.341 60.7567 396.56 60.1213 399.211 58.829L398.817 58.0188C396.319 59.236 393.243 59.8553 389.571 59.8553V60.7567ZM399.213 58.8283C401.91 57.5023 403.938 55.3556 405.297 52.4149L404.478 52.0368C403.198 54.8075 401.31 56.7927 398.815 58.0195L399.213 58.8283ZM405.296 52.4163C406.676 49.457 407.35 45.555 407.35 40.7385H406.449C406.449 45.484 405.782 49.2403 404.479 52.0355L405.296 52.4163ZM407.35 40.7385C407.35 35.9226 406.676 32.0408 405.295 29.1232L404.48 29.5088C405.782 32.2593 406.449 35.9925 406.449 40.7385H407.35ZM405.295 29.1244C403.914 26.1835 401.864 24.0477 399.144 22.7441L398.754 23.5569C401.27 24.7627 403.178 26.7373 404.48 29.5076L405.295 29.1244ZM399.148 22.7461C396.474 21.4312 393.199 20.7852 389.344 20.7852V21.6866C393.103 21.6866 396.233 22.317 398.75 23.5549L399.148 22.7461ZM389.344 20.7852H381.686V21.6866H389.344V20.7852ZM381.235 21.2359V60.306H382.136V21.2359H381.235Z" fill="url(#paint1_linear_1035_893)"/>
<path d="M4.02979 175H3.57912V175.451H4.02979V175ZM4.02979 108.542V108.091H3.57912V108.542H4.02979ZM44.2356 110.651L44.0613 111.067L44.0623 111.067L44.2356 110.651ZM51.829 116.557L51.454 116.807L51.4555 116.809L51.829 116.557ZM52.8025 132.133L53.1993 132.347L53.2003 132.345L52.8025 132.133ZM48.4217 137.033L48.1638 136.664L48.4217 137.033ZM41.9641 139.759L41.8705 139.318L41.5134 139.394V139.759H41.9641ZM41.9641 140.408H41.5134V140.837L41.9423 140.858L41.9641 140.408ZM49.3952 142.582L49.1688 142.972L49.1704 142.973L49.3952 142.582ZM54.9118 148.099L54.5231 148.327L54.5241 148.329L54.9118 148.099ZM54.2628 165.979L54.6404 166.225L54.6413 166.223L54.2628 165.979ZM46.3773 172.599L46.5675 173.007L46.5696 173.006L46.3773 172.599ZM20.0927 162.052H19.642V162.503H20.0927V162.052ZM37.7131 160.073L37.4333 159.72L37.431 159.721L37.7131 160.073ZM39.0111 150.143L38.6312 150.386L38.6331 150.388L39.0111 150.143ZM35.6039 147.255L35.412 147.663L35.4169 147.665L35.6039 147.255ZM20.0927 146.217V145.766H19.642V146.217H20.0927ZM20.0927 135.865H19.642V136.316H20.0927V135.865ZM36.837 132.458L36.4688 132.198L36.4654 132.203L36.837 132.458ZM35.6363 123.209L35.9196 122.859L35.6363 123.209ZM20.0927 121.295V120.844H19.642V121.295H20.0927ZM4.48045 175V108.542H3.57912V175H4.48045ZM4.02979 108.993H31.7423V108.091H4.02979V108.993ZM31.7423 108.993C36.6788 108.993 40.7796 109.691 44.0613 111.067L44.4099 110.236C40.9852 108.799 36.7572 108.091 31.7423 108.091V108.993ZM44.0623 111.067C47.3718 112.446 49.8252 114.364 51.454 116.807L52.204 116.307C50.458 113.688 47.8491 111.669 44.409 110.235L44.0623 111.067ZM51.4555 116.809C53.1097 119.259 53.9419 122.101 53.9419 125.351H54.8432C54.8432 121.938 53.9664 118.917 52.2025 116.305L51.4555 116.809ZM53.9419 125.351C53.9419 127.818 53.426 130.004 52.4047 131.921L53.2003 132.345C54.2991 130.282 54.8432 127.947 54.8432 125.351H53.9419ZM52.4057 131.92C51.3796 133.825 49.9673 135.405 48.1638 136.664L48.6796 137.403C50.5971 136.065 52.1053 134.379 53.1993 132.347L52.4057 131.92ZM48.1638 136.664C46.3576 137.924 44.2621 138.81 41.8705 139.318L42.0577 140.2C44.5553 139.669 46.7649 138.739 48.6796 137.403L48.1638 136.664ZM41.5134 139.759V140.408H42.4148V139.759H41.5134ZM41.9423 140.858C44.5545 140.985 46.9611 141.689 49.1688 142.972L49.6216 142.193C47.2863 140.836 44.7388 140.091 41.9859 139.958L41.9423 140.858ZM49.1704 142.973C51.3935 144.252 53.1768 146.034 54.5231 148.327L55.3004 147.871C53.8776 145.447 51.9833 143.552 49.62 142.192L49.1704 142.973ZM54.5241 148.329C55.8605 150.584 56.5379 153.271 56.5379 156.406H57.4392C57.4392 153.138 56.7321 150.287 55.2995 147.869L54.5241 148.329ZM56.5379 156.406C56.5379 159.895 55.6512 163 53.8842 165.734L54.6413 166.223C56.5087 163.333 57.4392 160.056 57.4392 156.406H56.5379ZM53.8851 165.733C52.1197 168.444 49.5602 170.599 46.1851 172.191L46.5696 173.006C50.074 171.353 52.7714 169.095 54.6404 166.225L53.8851 165.733ZM46.1872 172.19C42.8218 173.756 38.7152 174.549 33.8516 174.549V175.451C38.8095 175.451 43.0534 174.643 46.5675 173.007L46.1872 172.19ZM33.8516 174.549H4.02979V175.451H33.8516V174.549ZM20.0927 162.503H30.0224V161.602H20.0927V162.503ZM30.0224 162.503C33.5464 162.503 36.2335 161.838 37.9952 160.424L37.431 159.721C35.9044 160.947 33.4644 161.602 30.0224 161.602V162.503ZM37.993 160.426C39.7795 159.011 40.6625 157.035 40.6625 154.556H39.7611C39.7611 156.794 38.9784 158.496 37.4333 159.72L37.993 160.426ZM40.6625 154.556C40.6625 152.775 40.2443 151.215 39.3891 149.898L38.6331 150.388C39.3788 151.537 39.7611 152.92 39.7611 154.556H40.6625ZM39.3911 149.901C38.5398 148.566 37.3339 147.548 35.7908 146.845L35.4169 147.665C36.8159 148.303 37.8816 149.21 38.6312 150.385L39.3911 149.901ZM35.7958 146.847C34.251 146.12 32.419 145.766 30.3145 145.766V146.667C32.3203 146.667 34.0146 147.005 35.412 147.663L35.7958 146.847ZM30.3145 145.766H20.0927V146.667H30.3145V145.766ZM19.642 146.217V162.052H20.5433V146.217H19.642ZM20.0927 136.316H28.984V135.414H20.0927V136.316ZM28.984 136.316C30.7864 136.316 32.4061 136.015 33.8344 135.403L33.4793 134.575C32.1818 135.131 30.6862 135.414 28.984 135.414V136.316ZM33.8344 135.403C35.267 134.789 36.398 133.894 37.2086 132.713L36.4654 132.203C35.7617 133.228 34.7725 134.02 33.4793 134.575L33.8344 135.403ZM37.2052 132.718C38.0456 131.527 38.4558 130.102 38.4558 128.466H37.5545C37.5545 129.946 37.186 131.182 36.4688 132.198L37.2052 132.718ZM38.4558 128.466C38.4558 126.117 37.6159 124.23 35.9196 122.859L35.353 123.56C36.8152 124.742 37.5545 126.359 37.5545 128.466H38.4558ZM35.9196 122.859C34.2376 121.5 31.996 120.844 29.2436 120.844V121.746C31.8564 121.746 33.8765 122.367 35.353 123.56L35.9196 122.859ZM29.2436 120.844H20.0927V121.746H29.2436V120.844ZM19.642 121.295V135.865H20.5433V121.295H19.642ZM64.7117 175H64.2611V175.451H64.7117V175ZM64.7117 108.542V108.091H64.2611V108.542H64.7117ZM111.051 108.542H111.501V108.091H111.051V108.542ZM111.051 121.587V122.038H111.501V121.587H111.051ZM80.7746 121.587V121.136H80.3239V121.587H80.7746ZM80.7746 135.216H80.3239V135.667H80.7746V135.216ZM108.682 135.216H109.132V134.765H108.682V135.216ZM108.682 148.293V148.744H109.132V148.293H108.682ZM80.7746 148.293V147.843H80.3239V148.293H80.7746ZM80.7746 161.955H80.3239V162.406H80.7746V161.955ZM111.051 161.955H111.501V161.504H111.051V161.955ZM111.051 175V175.451H111.501V175H111.051ZM65.1624 175V108.542H64.2611V175H65.1624ZM64.7117 108.993H111.051V108.091H64.7117V108.993ZM110.6 108.542V121.587H111.501V108.542H110.6ZM111.051 121.136H80.7746V122.038H111.051V121.136ZM80.3239 121.587V135.216H81.2253V121.587H80.3239ZM80.7746 135.667H108.682V134.765H80.7746V135.667ZM108.231 135.216V148.293H109.132V135.216H108.231ZM108.682 147.843H80.7746V148.744H108.682V147.843ZM80.3239 148.293V161.955H81.2253V148.293H80.3239ZM80.7746 162.406H111.051V161.504H80.7746V162.406ZM110.6 161.955V175H111.501V161.955H110.6ZM111.051 174.549H64.7117V175.451H111.051V174.549ZM121.11 175H120.66V175.451H121.11V175ZM121.11 108.542V108.091H120.66V108.542H121.11ZM137.173 108.542H137.624V108.091H137.173V108.542ZM137.173 161.955H136.722V162.406H137.173V161.955ZM164.821 161.955H165.271V161.504H164.821V161.955ZM164.821 175V175.451H165.271V175H164.821ZM121.561 175V108.542H120.66V175H121.561ZM121.11 108.993H137.173V108.091H121.11V108.993ZM136.722 108.542V161.955H137.624V108.542H136.722ZM137.173 162.406H164.821V161.504H137.173V162.406ZM164.37 161.955V175H165.271V161.955H164.37ZM164.821 174.549H121.11V175.451H164.821V174.549ZM229.056 160.365L228.662 160.147L229.056 160.365ZM217.633 171.95L217.416 171.555L217.416 171.555L217.633 171.95ZM185.41 171.917L185.63 171.523L185.41 171.917ZM174.02 160.332L173.625 160.549L173.626 160.551L174.02 160.332ZM174.02 123.177L173.626 122.959L173.625 122.96L174.02 123.177ZM185.41 111.592L185.628 111.987L185.41 111.592ZM217.633 111.592L217.416 111.987L217.416 111.987L217.633 111.592ZM229.056 123.177L228.662 123.395L229.056 123.177ZM215.005 130.803L214.587 130.972L214.588 130.975L215.005 130.803ZM209.748 124.021L209.496 124.394L209.497 124.395L209.748 124.021ZM193.328 124.021L193.579 124.395L193.328 124.021ZM188.039 130.803L187.622 130.631L187.621 130.633L188.039 130.803ZM188.039 152.739L187.621 152.909L187.622 152.911L188.039 152.739ZM193.328 159.521L193.579 159.147L193.328 159.521ZM209.748 159.521L209.497 159.147L209.496 159.148L209.748 159.521ZM215.005 152.739L214.588 152.567L214.587 152.57L215.005 152.739ZM232.824 141.771C232.824 149.026 231.429 155.145 228.662 160.147L229.45 160.583C232.308 155.417 233.725 149.14 233.725 141.771H232.824ZM228.662 160.147C225.888 165.161 222.14 168.959 217.416 171.555L217.85 172.345C222.732 169.662 226.599 165.737 229.45 160.583L228.662 160.147ZM217.416 171.555C212.707 174.154 207.418 175.458 201.538 175.458V176.359C207.557 176.359 212.998 175.024 217.851 172.344L217.416 171.555ZM201.538 175.458C195.637 175.458 190.337 174.144 185.63 171.523L185.191 172.311C190.045 175.013 195.498 176.359 201.538 176.359V175.458ZM185.63 171.523C180.926 168.906 177.188 165.107 174.414 160.114L173.626 160.551C176.477 165.683 180.332 169.607 185.191 172.311L185.63 171.523ZM174.415 160.116C171.669 155.113 170.285 149.005 170.285 141.771H169.384C169.384 149.118 170.79 155.384 173.625 160.549L174.415 160.116ZM170.285 141.771C170.285 134.515 171.669 128.396 174.415 123.394L173.625 122.96C170.79 128.126 169.384 134.402 169.384 141.771H170.285ZM174.415 123.395C177.189 118.381 180.926 114.582 185.628 111.987L185.193 111.198C180.332 113.881 176.477 117.806 173.626 122.959L174.415 123.395ZM185.628 111.987C190.336 109.388 195.636 108.084 201.538 108.084V107.183C195.498 107.183 190.046 108.518 185.193 111.198L185.628 111.987ZM201.538 108.084C207.418 108.084 212.707 109.388 217.416 111.987L217.851 111.198C212.998 108.518 207.557 107.183 201.538 107.183V108.084ZM217.416 111.987C222.14 114.583 225.888 118.381 228.662 123.395L229.45 122.959C226.599 117.805 222.732 113.88 217.85 111.197L217.416 111.987ZM228.662 123.395C231.429 128.397 232.824 134.516 232.824 141.771H233.725C233.725 134.402 232.308 128.125 229.45 122.959L228.662 123.395ZM217.305 141.771C217.305 137.404 216.683 133.686 215.422 130.631L214.588 130.975C215.793 133.891 216.404 137.484 216.404 141.771H217.305ZM215.423 130.633C214.183 127.579 212.379 125.24 209.999 123.646L209.497 124.395C211.704 125.873 213.404 128.056 214.587 130.972L215.423 130.633ZM210 123.647C207.643 122.053 204.814 121.266 201.538 121.266V122.167C204.665 122.167 207.31 122.916 209.496 124.394L210 123.647ZM201.538 121.266C198.283 121.266 195.456 122.053 193.077 123.646L193.579 124.395C195.787 122.916 198.433 122.167 201.538 122.167V121.266ZM193.077 123.646C190.698 125.24 188.883 127.577 187.622 130.631L188.455 130.975C189.66 128.057 191.372 125.874 193.579 124.395L193.077 123.646ZM187.621 130.633C186.382 133.688 185.771 137.405 185.771 141.771H186.672C186.672 137.484 187.273 133.889 188.456 130.972L187.621 130.633ZM185.771 141.771C185.771 146.137 186.382 149.854 187.621 152.909L188.456 152.57C187.273 149.653 186.672 146.058 186.672 141.771H185.771ZM187.622 152.911C188.883 155.965 190.698 158.302 193.077 159.896L193.579 159.147C191.372 157.668 189.66 155.484 188.455 152.567L187.622 152.911ZM193.077 159.896C195.456 161.489 198.283 162.276 201.538 162.276V161.375C198.433 161.375 195.787 160.626 193.579 159.147L193.077 159.896ZM201.538 162.276C204.814 162.276 207.643 161.489 210 159.895L209.496 159.148C207.31 160.625 204.665 161.375 201.538 161.375V162.276ZM209.999 159.896C212.379 158.302 214.183 155.963 215.423 152.909L214.587 152.57C213.404 155.486 211.704 157.669 209.497 159.147L209.999 159.896ZM215.422 152.911C216.683 149.856 217.305 146.138 217.305 141.771H216.404C216.404 146.058 215.793 149.651 214.588 152.567L215.422 152.911ZM253.815 108.542L254.246 108.41L254.149 108.091H253.815V108.542ZM268.678 157.217L268.247 157.349L268.344 157.668H268.678V157.217ZM269.229 157.217V157.668H269.563L269.66 157.349L269.229 157.217ZM284.092 108.542V108.091H283.758L283.661 108.41L284.092 108.542ZM302.069 108.542L302.496 108.686L302.697 108.091H302.069V108.542ZM279.646 175V175.451H279.969L280.073 175.144L279.646 175ZM258.261 175L257.834 175.144L257.938 175.451H258.261V175ZM235.838 108.542V108.091H235.21L235.411 108.686L235.838 108.542ZM253.384 108.674L268.247 157.349L269.109 157.086L254.246 108.41L253.384 108.674ZM268.678 157.668H269.229V156.767H268.678V157.668ZM269.66 157.349L284.523 108.674L283.661 108.41L268.798 157.086L269.66 157.349ZM284.092 108.993H302.069V108.091H284.092V108.993ZM301.642 108.398L279.219 174.856L280.073 175.144L302.496 108.686L301.642 108.398ZM279.646 174.549H258.261V175.451H279.646V174.549ZM258.688 174.856L236.265 108.398L235.411 108.686L257.834 175.144L258.688 174.856ZM235.838 108.993H253.815V108.091H235.838V108.993ZM309.224 175H308.774V175.451H309.224V175ZM309.224 108.542V108.091H308.774V108.542H309.224ZM355.563 108.542H356.014V108.091H355.563V108.542ZM355.563 121.587V122.038H356.014V121.587H355.563ZM325.287 121.587V121.136H324.836V121.587H325.287ZM325.287 135.216H324.836V135.667H325.287V135.216ZM353.194 135.216H353.645V134.765H353.194V135.216ZM353.194 148.293V148.744H353.645V148.293H353.194ZM325.287 148.293V147.843H324.836V148.293H325.287ZM325.287 161.955H324.836V162.406H325.287V161.955ZM355.563 161.955H356.014V161.504H355.563V161.955ZM355.563 175V175.451H356.014V175H355.563ZM309.675 175V108.542H308.774V175H309.675ZM309.224 108.993H355.563V108.091H309.224V108.993ZM355.113 108.542V121.587H356.014V108.542H355.113ZM355.563 121.136H325.287V122.038H355.563V121.136ZM324.836 121.587V135.216H325.738V121.587H324.836ZM325.287 135.667H353.194V134.765H325.287V135.667ZM352.744 135.216V148.293H353.645V135.216H352.744ZM353.194 147.843H325.287V148.744H353.194V147.843ZM324.836 148.293V161.955H325.738V148.293H324.836ZM325.287 162.406H355.563V161.504H325.287V162.406ZM355.113 161.955V175H356.014V161.955H355.113ZM355.563 174.549H309.224V175.451H355.563V174.549ZM365.623 175H365.172V175.451H365.623V175ZM365.623 108.542V108.091H365.172V108.542H365.623ZM407.646 112.533L407.43 112.929L407.432 112.93L407.646 112.533ZM419.003 123.956L418.606 124.168L418.606 124.169L419.003 123.956ZM419.003 159.586L418.606 159.374L418.605 159.375L419.003 159.586ZM407.678 171.041L407.892 171.438L407.893 171.437L407.678 171.041ZM381.686 161.306H381.235V161.757H381.686V161.306ZM399.014 159.424L399.211 159.829L399.213 159.828L399.014 159.424ZM404.888 153.226L404.479 153.035L404.478 153.037L404.888 153.226ZM404.888 130.316L404.48 130.508L404.48 130.509L404.888 130.316ZM398.949 124.15L398.75 124.555L398.754 124.557L398.949 124.15ZM381.686 122.236V121.785H381.235V122.236H381.686ZM390.188 174.549H365.623V175.451H390.188V174.549ZM366.073 175V108.542H365.172V175H366.073ZM365.623 108.993H390.155V108.091H365.623V108.993ZM390.155 108.993C396.867 108.993 402.62 110.311 407.43 112.929L407.861 112.137C402.893 109.434 396.986 108.091 390.155 108.091V108.993ZM407.432 112.93C412.264 115.527 415.986 119.27 418.606 124.168L419.401 123.743C416.699 118.69 412.849 114.818 407.859 112.136L407.432 112.93ZM418.606 124.169C421.225 129.044 422.544 134.895 422.544 141.739H423.445C423.445 134.78 422.104 128.775 419.4 123.743L418.606 124.169ZM422.544 141.739C422.544 148.604 421.225 154.477 418.606 159.374L419.401 159.799C422.104 154.744 423.445 148.719 423.445 141.739H422.544ZM418.605 159.375C416.007 164.273 412.296 168.027 407.464 170.645L407.893 171.437C412.882 168.734 416.721 164.851 419.402 159.797L418.605 159.375ZM407.465 170.644C402.632 173.241 396.878 174.549 390.188 174.549V175.451C396.996 175.451 402.903 174.119 407.892 171.438L407.465 170.644ZM381.686 161.757H389.571V160.855H381.686V161.757ZM389.571 161.757C393.341 161.757 396.56 161.121 399.211 159.829L398.817 159.019C396.319 160.236 393.243 160.855 389.571 160.855V161.757ZM399.213 159.828C401.91 158.502 403.938 156.356 405.297 153.415L404.478 153.037C403.198 155.807 401.31 157.793 398.815 159.019L399.213 159.828ZM405.296 153.416C406.676 150.457 407.35 146.555 407.35 141.739H406.449C406.449 146.484 405.782 150.24 404.479 153.035L405.296 153.416ZM407.35 141.739C407.35 136.923 406.676 133.041 405.295 130.123L404.48 130.509C405.782 133.259 406.449 136.992 406.449 141.739H407.35ZM405.295 130.124C403.914 127.184 401.864 125.048 399.144 123.744L398.754 124.557C401.27 125.763 403.178 127.737 404.48 130.508L405.295 130.124ZM399.148 123.746C396.474 122.431 393.199 121.785 389.344 121.785V122.687C393.103 122.687 396.233 123.317 398.75 124.555L399.148 123.746ZM389.344 121.785H381.686V122.687H389.344V121.785ZM381.235 122.236V161.306H382.136V122.236H381.235Z" fill="url(#paint2_linear_1035_893)"/>
<path d="M4.02979 276H3.57912V276.451H4.02979V276ZM4.02979 209.542V209.091H3.57912V209.542H4.02979ZM44.2356 211.651L44.0613 212.067L44.0623 212.067L44.2356 211.651ZM51.829 217.557L51.454 217.807L51.4555 217.809L51.829 217.557ZM52.8025 233.133L53.1993 233.347L53.2003 233.345L52.8025 233.133ZM48.4217 238.033L48.1638 237.664L48.4217 238.033ZM41.9641 240.759L41.8705 240.318L41.5134 240.394V240.759H41.9641ZM41.9641 241.408H41.5134V241.837L41.9423 241.858L41.9641 241.408ZM49.3952 243.582L49.1688 243.972L49.1704 243.973L49.3952 243.582ZM54.9118 249.099L54.5231 249.327L54.5241 249.329L54.9118 249.099ZM54.2628 266.979L54.6404 267.225L54.6413 267.223L54.2628 266.979ZM46.3773 273.599L46.5675 274.007L46.5696 274.006L46.3773 273.599ZM20.0927 263.052H19.642V263.503H20.0927V263.052ZM37.7131 261.073L37.4333 260.72L37.431 260.721L37.7131 261.073ZM39.0111 251.143L38.6312 251.386L38.6331 251.388L39.0111 251.143ZM35.6039 248.255L35.412 248.663L35.4169 248.665L35.6039 248.255ZM20.0927 247.217V246.766H19.642V247.217H20.0927ZM20.0927 236.865H19.642V237.316H20.0927V236.865ZM36.837 233.458L36.4688 233.198L36.4654 233.203L36.837 233.458ZM35.6363 224.209L35.9196 223.859L35.6363 224.209ZM20.0927 222.295V221.844H19.642V222.295H20.0927ZM4.48045 276V209.542H3.57912V276H4.48045ZM4.02979 209.993H31.7423V209.091H4.02979V209.993ZM31.7423 209.993C36.6788 209.993 40.7796 210.691 44.0613 212.067L44.4099 211.236C40.9852 209.799 36.7572 209.091 31.7423 209.091V209.993ZM44.0623 212.067C47.3718 213.446 49.8252 215.364 51.454 217.807L52.204 217.307C50.458 214.688 47.8491 212.669 44.409 211.235L44.0623 212.067ZM51.4555 217.809C53.1097 220.259 53.9419 223.101 53.9419 226.351H54.8432C54.8432 222.938 53.9664 219.917 52.2025 217.305L51.4555 217.809ZM53.9419 226.351C53.9419 228.818 53.426 231.004 52.4047 232.921L53.2003 233.345C54.2991 231.282 54.8432 228.947 54.8432 226.351H53.9419ZM52.4057 232.92C51.3796 234.825 49.9673 236.405 48.1638 237.664L48.6796 238.403C50.5971 237.065 52.1053 235.379 53.1993 233.347L52.4057 232.92ZM48.1638 237.664C46.3576 238.924 44.2621 239.81 41.8705 240.318L42.0577 241.2C44.5553 240.669 46.7649 239.739 48.6796 238.403L48.1638 237.664ZM41.5134 240.759V241.408H42.4148V240.759H41.5134ZM41.9423 241.858C44.5545 241.985 46.9611 242.689 49.1688 243.972L49.6216 243.193C47.2863 241.836 44.7388 241.091 41.9859 240.958L41.9423 241.858ZM49.1704 243.973C51.3935 245.252 53.1768 247.034 54.5231 249.327L55.3004 248.871C53.8776 246.447 51.9833 244.552 49.62 243.192L49.1704 243.973ZM54.5241 249.329C55.8605 251.584 56.5379 254.271 56.5379 257.406H57.4392C57.4392 254.138 56.7321 251.287 55.2995 248.869L54.5241 249.329ZM56.5379 257.406C56.5379 260.895 55.6512 264 53.8842 266.734L54.6413 267.223C56.5087 264.333 57.4392 261.056 57.4392 257.406H56.5379ZM53.8851 266.733C52.1197 269.444 49.5602 271.599 46.1851 273.191L46.5696 274.006C50.074 272.353 52.7714 270.095 54.6404 267.225L53.8851 266.733ZM46.1872 273.19C42.8218 274.756 38.7152 275.549 33.8516 275.549V276.451C38.8095 276.451 43.0534 275.643 46.5675 274.007L46.1872 273.19ZM33.8516 275.549H4.02979V276.451H33.8516V275.549ZM20.0927 263.503H30.0224V262.602H20.0927V263.503ZM30.0224 263.503C33.5464 263.503 36.2335 262.838 37.9952 261.424L37.431 260.721C35.9044 261.947 33.4644 262.602 30.0224 262.602V263.503ZM37.993 261.426C39.7795 260.011 40.6625 258.035 40.6625 255.556H39.7611C39.7611 257.794 38.9784 259.496 37.4333 260.72L37.993 261.426ZM40.6625 255.556C40.6625 253.775 40.2443 252.215 39.3891 250.898L38.6331 251.388C39.3788 252.537 39.7611 253.92 39.7611 255.556H40.6625ZM39.3911 250.901C38.5398 249.566 37.3339 248.548 35.7908 247.845L35.4169 248.665C36.8159 249.303 37.8816 250.21 38.6312 251.385L39.3911 250.901ZM35.7958 247.847C34.251 247.12 32.419 246.766 30.3145 246.766V247.667C32.3203 247.667 34.0146 248.005 35.412 248.663L35.7958 247.847ZM30.3145 246.766H20.0927V247.667H30.3145V246.766ZM19.642 247.217V263.052H20.5433V247.217H19.642ZM20.0927 237.316H28.984V236.414H20.0927V237.316ZM28.984 237.316C30.7864 237.316 32.4061 237.015 33.8344 236.403L33.4793 235.575C32.1818 236.131 30.6862 236.414 28.984 236.414V237.316ZM33.8344 236.403C35.267 235.789 36.398 234.894 37.2086 233.713L36.4654 233.203C35.7617 234.228 34.7725 235.02 33.4793 235.575L33.8344 236.403ZM37.2052 233.718C38.0456 232.527 38.4558 231.102 38.4558 229.466H37.5545C37.5545 230.946 37.186 232.182 36.4688 233.198L37.2052 233.718ZM38.4558 229.466C38.4558 227.117 37.6159 225.23 35.9196 223.859L35.353 224.56C36.8152 225.742 37.5545 227.359 37.5545 229.466H38.4558ZM35.9196 223.859C34.2376 222.5 31.996 221.844 29.2436 221.844V222.746C31.8564 222.746 33.8765 223.367 35.353 224.56L35.9196 223.859ZM29.2436 221.844H20.0927V222.746H29.2436V221.844ZM19.642 222.295V236.865H20.5433V222.295H19.642ZM64.7117 276H64.2611V276.451H64.7117V276ZM64.7117 209.542V209.091H64.2611V209.542H64.7117ZM111.051 209.542H111.501V209.091H111.051V209.542ZM111.051 222.587V223.038H111.501V222.587H111.051ZM80.7746 222.587V222.136H80.3239V222.587H80.7746ZM80.7746 236.216H80.3239V236.667H80.7746V236.216ZM108.682 236.216H109.132V235.765H108.682V236.216ZM108.682 249.293V249.744H109.132V249.293H108.682ZM80.7746 249.293V248.843H80.3239V249.293H80.7746ZM80.7746 262.955H80.3239V263.406H80.7746V262.955ZM111.051 262.955H111.501V262.504H111.051V262.955ZM111.051 276V276.451H111.501V276H111.051ZM65.1624 276V209.542H64.2611V276H65.1624ZM64.7117 209.993H111.051V209.091H64.7117V209.993ZM110.6 209.542V222.587H111.501V209.542H110.6ZM111.051 222.136H80.7746V223.038H111.051V222.136ZM80.3239 222.587V236.216H81.2253V222.587H80.3239ZM80.7746 236.667H108.682V235.765H80.7746V236.667ZM108.231 236.216V249.293H109.132V236.216H108.231ZM108.682 248.843H80.7746V249.744H108.682V248.843ZM80.3239 249.293V262.955H81.2253V249.293H80.3239ZM80.7746 263.406H111.051V262.504H80.7746V263.406ZM110.6 262.955V276H111.501V262.955H110.6ZM111.051 275.549H64.7117V276.451H111.051V275.549ZM121.11 276H120.66V276.451H121.11V276ZM121.11 209.542V209.091H120.66V209.542H121.11ZM137.173 209.542H137.624V209.091H137.173V209.542ZM137.173 262.955H136.722V263.406H137.173V262.955ZM164.821 262.955H165.271V262.504H164.821V262.955ZM164.821 276V276.451H165.271V276H164.821ZM121.561 276V209.542H120.66V276H121.561ZM121.11 209.993H137.173V209.091H121.11V209.993ZM136.722 209.542V262.955H137.624V209.542H136.722ZM137.173 263.406H164.821V262.504H137.173V263.406ZM164.37 262.955V276H165.271V262.955H164.37ZM164.821 275.549H121.11V276.451H164.821V275.549ZM229.056 261.365L228.662 261.147L229.056 261.365ZM217.633 272.95L217.416 272.555L217.416 272.555L217.633 272.95ZM185.41 272.917L185.63 272.523L185.41 272.917ZM174.02 261.332L173.625 261.549L173.626 261.551L174.02 261.332ZM174.02 224.177L173.626 223.959L173.625 223.96L174.02 224.177ZM185.41 212.592L185.628 212.987L185.41 212.592ZM217.633 212.592L217.416 212.987L217.416 212.987L217.633 212.592ZM229.056 224.177L228.662 224.395L229.056 224.177ZM215.005 231.803L214.587 231.972L214.588 231.975L215.005 231.803ZM209.748 225.021L209.496 225.394L209.497 225.395L209.748 225.021ZM193.328 225.021L193.579 225.395L193.328 225.021ZM188.039 231.803L187.622 231.631L187.621 231.633L188.039 231.803ZM188.039 253.739L187.621 253.909L187.622 253.911L188.039 253.739ZM193.328 260.521L193.579 260.147L193.328 260.521ZM209.748 260.521L209.497 260.147L209.496 260.148L209.748 260.521ZM215.005 253.739L214.588 253.567L214.587 253.57L215.005 253.739ZM232.824 242.771C232.824 250.026 231.429 256.145 228.662 261.147L229.45 261.583C232.308 256.417 233.725 250.14 233.725 242.771H232.824ZM228.662 261.147C225.888 266.161 222.14 269.959 217.416 272.555L217.85 273.345C222.732 270.662 226.599 266.737 229.45 261.583L228.662 261.147ZM217.416 272.555C212.707 275.154 207.418 276.458 201.538 276.458V277.359C207.557 277.359 212.998 276.024 217.851 273.344L217.416 272.555ZM201.538 276.458C195.637 276.458 190.337 275.144 185.63 272.523L185.191 273.311C190.045 276.013 195.498 277.359 201.538 277.359V276.458ZM185.63 272.523C180.926 269.906 177.188 266.107 174.414 261.114L173.626 261.551C176.477 266.683 180.332 270.607 185.191 273.311L185.63 272.523ZM174.415 261.116C171.669 256.113 170.285 250.005 170.285 242.771H169.384C169.384 250.118 170.79 256.384 173.625 261.549L174.415 261.116ZM170.285 242.771C170.285 235.515 171.669 229.396 174.415 224.394L173.625 223.96C170.79 229.126 169.384 235.402 169.384 242.771H170.285ZM174.415 224.395C177.189 219.381 180.926 215.582 185.628 212.987L185.193 212.198C180.332 214.881 176.477 218.806 173.626 223.959L174.415 224.395ZM185.628 212.987C190.336 210.388 195.636 209.084 201.538 209.084V208.183C195.498 208.183 190.046 209.518 185.193 212.198L185.628 212.987ZM201.538 209.084C207.418 209.084 212.707 210.388 217.416 212.987L217.851 212.198C212.998 209.518 207.557 208.183 201.538 208.183V209.084ZM217.416 212.987C222.14 215.583 225.888 219.381 228.662 224.395L229.45 223.959C226.599 218.805 222.732 214.88 217.85 212.197L217.416 212.987ZM228.662 224.395C231.429 229.397 232.824 235.516 232.824 242.771H233.725C233.725 235.402 232.308 229.125 229.45 223.959L228.662 224.395ZM217.305 242.771C217.305 238.404 216.683 234.686 215.422 231.631L214.588 231.975C215.793 234.891 216.404 238.484 216.404 242.771H217.305ZM215.423 231.633C214.183 228.579 212.379 226.24 209.999 224.646L209.497 225.395C211.704 226.873 213.404 229.056 214.587 231.972L215.423 231.633ZM210 224.647C207.643 223.053 204.814 222.266 201.538 222.266V223.167C204.665 223.167 207.31 223.916 209.496 225.394L210 224.647ZM201.538 222.266C198.283 222.266 195.456 223.053 193.077 224.646L193.579 225.395C195.787 223.916 198.433 223.167 201.538 223.167V222.266ZM193.077 224.646C190.698 226.24 188.883 228.577 187.622 231.631L188.455 231.975C189.66 229.057 191.372 226.874 193.579 225.395L193.077 224.646ZM187.621 231.633C186.382 234.688 185.771 238.405 185.771 242.771H186.672C186.672 238.484 187.273 234.889 188.456 231.972L187.621 231.633ZM185.771 242.771C185.771 247.137 186.382 250.854 187.621 253.909L188.456 253.57C187.273 250.653 186.672 247.058 186.672 242.771H185.771ZM187.622 253.911C188.883 256.965 190.698 259.302 193.077 260.896L193.579 260.147C191.372 258.668 189.66 256.484 188.455 253.567L187.622 253.911ZM193.077 260.896C195.456 262.489 198.283 263.276 201.538 263.276V262.375C198.433 262.375 195.787 261.626 193.579 260.147L193.077 260.896ZM201.538 263.276C204.814 263.276 207.643 262.489 210 260.895L209.496 260.148C207.31 261.625 204.665 262.375 201.538 262.375V263.276ZM209.999 260.896C212.379 259.302 214.183 256.963 215.423 253.909L214.587 253.57C213.404 256.486 211.704 258.669 209.497 260.147L209.999 260.896ZM215.422 253.911C216.683 250.856 217.305 247.138 217.305 242.771H216.404C216.404 247.058 215.793 250.651 214.588 253.567L215.422 253.911ZM253.815 209.542L254.246 209.41L254.149 209.091H253.815V209.542ZM268.678 258.217L268.247 258.349L268.344 258.668H268.678V258.217ZM269.229 258.217V258.668H269.563L269.66 258.349L269.229 258.217ZM284.092 209.542V209.091H283.758L283.661 209.41L284.092 209.542ZM302.069 209.542L302.496 209.686L302.697 209.091H302.069V209.542ZM279.646 276V276.451H279.969L280.073 276.144L279.646 276ZM258.261 276L257.834 276.144L257.938 276.451H258.261V276ZM235.838 209.542V209.091H235.21L235.411 209.686L235.838 209.542ZM253.384 209.674L268.247 258.349L269.109 258.086L254.246 209.41L253.384 209.674ZM268.678 258.668H269.229V257.767H268.678V258.668ZM269.66 258.349L284.523 209.674L283.661 209.41L268.798 258.086L269.66 258.349ZM284.092 209.993H302.069V209.091H284.092V209.993ZM301.642 209.398L279.219 275.856L280.073 276.144L302.496 209.686L301.642 209.398ZM279.646 275.549H258.261V276.451H279.646V275.549ZM258.688 275.856L236.265 209.398L235.411 209.686L257.834 276.144L258.688 275.856ZM235.838 209.993H253.815V209.091H235.838V209.993ZM309.224 276H308.774V276.451H309.224V276ZM309.224 209.542V209.091H308.774V209.542H309.224ZM355.563 209.542H356.014V209.091H355.563V209.542ZM355.563 222.587V223.038H356.014V222.587H355.563ZM325.287 222.587V222.136H324.836V222.587H325.287ZM325.287 236.216H324.836V236.667H325.287V236.216ZM353.194 236.216H353.645V235.765H353.194V236.216ZM353.194 249.293V249.744H353.645V249.293H353.194ZM325.287 249.293V248.843H324.836V249.293H325.287ZM325.287 262.955H324.836V263.406H325.287V262.955ZM355.563 262.955H356.014V262.504H355.563V262.955ZM355.563 276V276.451H356.014V276H355.563ZM309.675 276V209.542H308.774V276H309.675ZM309.224 209.993H355.563V209.091H309.224V209.993ZM355.113 209.542V222.587H356.014V209.542H355.113ZM355.563 222.136H325.287V223.038H355.563V222.136ZM324.836 222.587V236.216H325.738V222.587H324.836ZM325.287 236.667H353.194V235.765H325.287V236.667ZM352.744 236.216V249.293H353.645V236.216H352.744ZM353.194 248.843H325.287V249.744H353.194V248.843ZM324.836 249.293V262.955H325.738V249.293H324.836ZM325.287 263.406H355.563V262.504H325.287V263.406ZM355.113 262.955V276H356.014V262.955H355.113ZM355.563 275.549H309.224V276.451H355.563V275.549ZM365.623 276H365.172V276.451H365.623V276ZM365.623 209.542V209.091H365.172V209.542H365.623ZM407.646 213.533L407.43 213.929L407.432 213.93L407.646 213.533ZM419.003 224.956L418.606 225.168L418.606 225.169L419.003 224.956ZM419.003 260.586L418.606 260.374L418.605 260.375L419.003 260.586ZM407.678 272.041L407.892 272.438L407.893 272.437L407.678 272.041ZM381.686 262.306H381.235V262.757H381.686V262.306ZM399.014 260.424L399.211 260.829L399.213 260.828L399.014 260.424ZM404.888 254.226L404.479 254.035L404.478 254.037L404.888 254.226ZM404.888 231.316L404.48 231.508L404.48 231.509L404.888 231.316ZM398.949 225.15L398.75 225.555L398.754 225.557L398.949 225.15ZM381.686 223.236V222.785H381.235V223.236H381.686ZM390.188 275.549H365.623V276.451H390.188V275.549ZM366.073 276V209.542H365.172V276H366.073ZM365.623 209.993H390.155V209.091H365.623V209.993ZM390.155 209.993C396.867 209.993 402.62 211.311 407.43 213.929L407.861 213.137C402.893 210.434 396.986 209.091 390.155 209.091V209.993ZM407.432 213.93C412.264 216.527 415.986 220.27 418.606 225.168L419.401 224.743C416.699 219.69 412.849 215.818 407.859 213.136L407.432 213.93ZM418.606 225.169C421.225 230.044 422.544 235.895 422.544 242.739H423.445C423.445 235.78 422.104 229.775 419.4 224.743L418.606 225.169ZM422.544 242.739C422.544 249.604 421.225 255.477 418.606 260.374L419.401 260.799C422.104 255.744 423.445 249.719 423.445 242.739H422.544ZM418.605 260.375C416.007 265.273 412.296 269.027 407.464 271.645L407.893 272.437C412.882 269.734 416.721 265.851 419.402 260.797L418.605 260.375ZM407.465 271.644C402.632 274.241 396.878 275.549 390.188 275.549V276.451C396.996 276.451 402.903 275.119 407.892 272.438L407.465 271.644ZM381.686 262.757H389.571V261.855H381.686V262.757ZM389.571 262.757C393.341 262.757 396.56 262.121 399.211 260.829L398.817 260.019C396.319 261.236 393.243 261.855 389.571 261.855V262.757ZM399.213 260.828C401.91 259.502 403.938 257.356 405.297 254.415L404.478 254.037C403.198 256.807 401.31 258.793 398.815 260.019L399.213 260.828ZM405.296 254.416C406.676 251.457 407.35 247.555 407.35 242.739H406.449C406.449 247.484 405.782 251.24 404.479 254.035L405.296 254.416ZM407.35 242.739C407.35 237.923 406.676 234.041 405.295 231.123L404.48 231.509C405.782 234.259 406.449 237.992 406.449 242.739H407.35ZM405.295 231.124C403.914 228.184 401.864 226.048 399.144 224.744L398.754 225.557C401.27 226.763 403.178 228.737 404.48 231.508L405.295 231.124ZM399.148 224.746C396.474 223.431 393.199 222.785 389.344 222.785V223.687C393.103 223.687 396.233 224.317 398.75 225.555L399.148 224.746ZM389.344 222.785H381.686V223.687H389.344V222.785ZM381.235 223.236V262.306H382.136V223.236H381.235Z" fill="url(#paint3_linear_1035_893)"/>
<path d="M4.02979 377H3.57912V377.451H4.02979V377ZM4.02979 310.542V310.091H3.57912V310.542H4.02979ZM44.2356 312.651L44.0613 313.067L44.0623 313.067L44.2356 312.651ZM51.829 318.557L51.454 318.807L51.4555 318.809L51.829 318.557ZM52.8025 334.133L53.1993 334.347L53.2003 334.345L52.8025 334.133ZM48.4217 339.033L48.1638 338.664L48.4217 339.033ZM41.9641 341.759L41.8705 341.318L41.5134 341.394V341.759H41.9641ZM41.9641 342.408H41.5134V342.837L41.9423 342.858L41.9641 342.408ZM49.3952 344.582L49.1688 344.972L49.1704 344.973L49.3952 344.582ZM54.9118 350.099L54.5231 350.327L54.5241 350.329L54.9118 350.099ZM54.2628 367.979L54.6404 368.225L54.6413 368.223L54.2628 367.979ZM46.3773 374.599L46.5675 375.007L46.5696 375.006L46.3773 374.599ZM20.0927 364.052H19.642V364.503H20.0927V364.052ZM37.7131 362.073L37.4333 361.72L37.431 361.721L37.7131 362.073ZM39.0111 352.143L38.6312 352.386L38.6331 352.388L39.0111 352.143ZM35.6039 349.255L35.412 349.663L35.4169 349.665L35.6039 349.255ZM20.0927 348.217V347.766H19.642V348.217H20.0927ZM20.0927 337.865H19.642V338.316H20.0927V337.865ZM36.837 334.458L36.4688 334.198L36.4654 334.203L36.837 334.458ZM35.6363 325.209L35.9196 324.859L35.6363 325.209ZM20.0927 323.295V322.844H19.642V323.295H20.0927ZM4.48045 377V310.542H3.57912V377H4.48045ZM4.02979 310.993H31.7423V310.091H4.02979V310.993ZM31.7423 310.993C36.6788 310.993 40.7796 311.691 44.0613 313.067L44.4099 312.236C40.9852 310.799 36.7572 310.091 31.7423 310.091V310.993ZM44.0623 313.067C47.3718 314.446 49.8252 316.364 51.454 318.807L52.204 318.307C50.458 315.688 47.8491 313.669 44.409 312.235L44.0623 313.067ZM51.4555 318.809C53.1097 321.259 53.9419 324.101 53.9419 327.351H54.8432C54.8432 323.938 53.9664 320.917 52.2025 318.305L51.4555 318.809ZM53.9419 327.351C53.9419 329.818 53.426 332.004 52.4047 333.921L53.2003 334.345C54.2991 332.282 54.8432 329.947 54.8432 327.351H53.9419ZM52.4057 333.92C51.3796 335.825 49.9673 337.405 48.1638 338.664L48.6796 339.403C50.5971 338.065 52.1053 336.379 53.1993 334.347L52.4057 333.92ZM48.1638 338.664C46.3576 339.924 44.2621 340.81 41.8705 341.318L42.0577 342.2C44.5553 341.669 46.7649 340.739 48.6796 339.403L48.1638 338.664ZM41.5134 341.759V342.408H42.4148V341.759H41.5134ZM41.9423 342.858C44.5545 342.985 46.9611 343.689 49.1688 344.972L49.6216 344.193C47.2863 342.836 44.7388 342.091 41.9859 341.958L41.9423 342.858ZM49.1704 344.973C51.3935 346.252 53.1768 348.034 54.5231 350.327L55.3004 349.871C53.8776 347.447 51.9833 345.552 49.62 344.192L49.1704 344.973ZM54.5241 350.329C55.8605 352.584 56.5379 355.271 56.5379 358.406H57.4392C57.4392 355.138 56.7321 352.287 55.2995 349.869L54.5241 350.329ZM56.5379 358.406C56.5379 361.895 55.6512 365 53.8842 367.734L54.6413 368.223C56.5087 365.333 57.4392 362.056 57.4392 358.406H56.5379ZM53.8851 367.733C52.1197 370.444 49.5602 372.599 46.1851 374.191L46.5696 375.006C50.074 373.353 52.7714 371.095 54.6404 368.225L53.8851 367.733ZM46.1872 374.19C42.8218 375.756 38.7152 376.549 33.8516 376.549V377.451C38.8095 377.451 43.0534 376.643 46.5675 375.007L46.1872 374.19ZM33.8516 376.549H4.02979V377.451H33.8516V376.549ZM20.0927 364.503H30.0224V363.602H20.0927V364.503ZM30.0224 364.503C33.5464 364.503 36.2335 363.838 37.9952 362.424L37.431 361.721C35.9044 362.947 33.4644 363.602 30.0224 363.602V364.503ZM37.993 362.426C39.7795 361.011 40.6625 359.035 40.6625 356.556H39.7611C39.7611 358.794 38.9784 360.496 37.4333 361.72L37.993 362.426ZM40.6625 356.556C40.6625 354.775 40.2443 353.215 39.3891 351.898L38.6331 352.388C39.3788 353.537 39.7611 354.92 39.7611 356.556H40.6625ZM39.3911 351.901C38.5398 350.566 37.3339 349.548 35.7908 348.845L35.4169 349.665C36.8159 350.303 37.8816 351.21 38.6312 352.385L39.3911 351.901ZM35.7958 348.847C34.251 348.12 32.419 347.766 30.3145 347.766V348.667C32.3203 348.667 34.0146 349.005 35.412 349.663L35.7958 348.847ZM30.3145 347.766H20.0927V348.667H30.3145V347.766ZM19.642 348.217V364.052H20.5433V348.217H19.642ZM20.0927 338.316H28.984V337.414H20.0927V338.316ZM28.984 338.316C30.7864 338.316 32.4061 338.015 33.8344 337.403L33.4793 336.575C32.1818 337.131 30.6862 337.414 28.984 337.414V338.316ZM33.8344 337.403C35.267 336.789 36.398 335.894 37.2086 334.713L36.4654 334.203C35.7617 335.228 34.7725 336.02 33.4793 336.575L33.8344 337.403ZM37.2052 334.718C38.0456 333.527 38.4558 332.102 38.4558 330.466H37.5545C37.5545 331.946 37.186 333.182 36.4688 334.198L37.2052 334.718ZM38.4558 330.466C38.4558 328.117 37.6159 326.23 35.9196 324.859L35.353 325.56C36.8152 326.742 37.5545 328.359 37.5545 330.466H38.4558ZM35.9196 324.859C34.2376 323.5 31.996 322.844 29.2436 322.844V323.746C31.8564 323.746 33.8765 324.367 35.353 325.56L35.9196 324.859ZM29.2436 322.844H20.0927V323.746H29.2436V322.844ZM19.642 323.295V337.865H20.5433V323.295H19.642ZM64.7117 377H64.2611V377.451H64.7117V377ZM64.7117 310.542V310.091H64.2611V310.542H64.7117ZM111.051 310.542H111.501V310.091H111.051V310.542ZM111.051 323.587V324.038H111.501V323.587H111.051ZM80.7746 323.587V323.136H80.3239V323.587H80.7746ZM80.7746 337.216H80.3239V337.667H80.7746V337.216ZM108.682 337.216H109.132V336.765H108.682V337.216ZM108.682 350.293V350.744H109.132V350.293H108.682ZM80.7746 350.293V349.843H80.3239V350.293H80.7746ZM80.7746 363.955H80.3239V364.406H80.7746V363.955ZM111.051 363.955H111.501V363.504H111.051V363.955ZM111.051 377V377.451H111.501V377H111.051ZM65.1624 377V310.542H64.2611V377H65.1624ZM64.7117 310.993H111.051V310.091H64.7117V310.993ZM110.6 310.542V323.587H111.501V310.542H110.6ZM111.051 323.136H80.7746V324.038H111.051V323.136ZM80.3239 323.587V337.216H81.2253V323.587H80.3239ZM80.7746 337.667H108.682V336.765H80.7746V337.667ZM108.231 337.216V350.293H109.132V337.216H108.231ZM108.682 349.843H80.7746V350.744H108.682V349.843ZM80.3239 350.293V363.955H81.2253V350.293H80.3239ZM80.7746 364.406H111.051V363.504H80.7746V364.406ZM110.6 363.955V377H111.501V363.955H110.6ZM111.051 376.549H64.7117V377.451H111.051V376.549ZM121.11 377H120.66V377.451H121.11V377ZM121.11 310.542V310.091H120.66V310.542H121.11ZM137.173 310.542H137.624V310.091H137.173V310.542ZM137.173 363.955H136.722V364.406H137.173V363.955ZM164.821 363.955H165.271V363.504H164.821V363.955ZM164.821 377V377.451H165.271V377H164.821ZM121.561 377V310.542H120.66V377H121.561ZM121.11 310.993H137.173V310.091H121.11V310.993ZM136.722 310.542V363.955H137.624V310.542H136.722ZM137.173 364.406H164.821V363.504H137.173V364.406ZM164.37 363.955V377H165.271V363.955H164.37ZM164.821 376.549H121.11V377.451H164.821V376.549ZM229.056 362.365L228.662 362.147L229.056 362.365ZM217.633 373.95L217.416 373.555L217.416 373.555L217.633 373.95ZM185.41 373.917L185.63 373.523L185.41 373.917ZM174.02 362.332L173.625 362.549L173.626 362.551L174.02 362.332ZM174.02 325.177L173.626 324.959L173.625 324.96L174.02 325.177ZM185.41 313.592L185.628 313.987L185.41 313.592ZM217.633 313.592L217.416 313.987L217.416 313.987L217.633 313.592ZM229.056 325.177L228.662 325.395L229.056 325.177ZM215.005 332.803L214.587 332.972L214.588 332.975L215.005 332.803ZM209.748 326.021L209.496 326.394L209.497 326.395L209.748 326.021ZM193.328 326.021L193.579 326.395L193.328 326.021ZM188.039 332.803L187.622 332.631L187.621 332.633L188.039 332.803ZM188.039 354.739L187.621 354.909L187.622 354.911L188.039 354.739ZM193.328 361.521L193.579 361.147L193.328 361.521ZM209.748 361.521L209.497 361.147L209.496 361.148L209.748 361.521ZM215.005 354.739L214.588 354.567L214.587 354.57L215.005 354.739ZM232.824 343.771C232.824 351.026 231.429 357.145 228.662 362.147L229.45 362.583C232.308 357.417 233.725 351.14 233.725 343.771H232.824ZM228.662 362.147C225.888 367.161 222.14 370.959 217.416 373.555L217.85 374.345C222.732 371.662 226.599 367.737 229.45 362.583L228.662 362.147ZM217.416 373.555C212.707 376.154 207.418 377.458 201.538 377.458V378.359C207.557 378.359 212.998 377.024 217.851 374.344L217.416 373.555ZM201.538 377.458C195.637 377.458 190.337 376.144 185.63 373.523L185.191 374.311C190.045 377.013 195.498 378.359 201.538 378.359V377.458ZM185.63 373.523C180.926 370.906 177.188 367.107 174.414 362.114L173.626 362.551C176.477 367.683 180.332 371.607 185.191 374.311L185.63 373.523ZM174.415 362.116C171.669 357.113 170.285 351.005 170.285 343.771H169.384C169.384 351.118 170.79 357.384 173.625 362.549L174.415 362.116ZM170.285 343.771C170.285 336.515 171.669 330.396 174.415 325.394L173.625 324.96C170.79 330.126 169.384 336.402 169.384 343.771H170.285ZM174.415 325.395C177.189 320.381 180.926 316.582 185.628 313.987L185.193 313.198C180.332 315.881 176.477 319.806 173.626 324.959L174.415 325.395ZM185.628 313.987C190.336 311.388 195.636 310.084 201.538 310.084V309.183C195.498 309.183 190.046 310.518 185.193 313.198L185.628 313.987ZM201.538 310.084C207.418 310.084 212.707 311.388 217.416 313.987L217.851 313.198C212.998 310.518 207.557 309.183 201.538 309.183V310.084ZM217.416 313.987C222.14 316.583 225.888 320.381 228.662 325.395L229.45 324.959C226.599 319.805 222.732 315.88 217.85 313.197L217.416 313.987ZM228.662 325.395C231.429 330.397 232.824 336.516 232.824 343.771H233.725C233.725 336.402 232.308 330.125 229.45 324.959L228.662 325.395ZM217.305 343.771C217.305 339.404 216.683 335.686 215.422 332.631L214.588 332.975C215.793 335.891 216.404 339.484 216.404 343.771H217.305ZM215.423 332.633C214.183 329.579 212.379 327.24 209.999 325.646L209.497 326.395C211.704 327.873 213.404 330.056 214.587 332.972L215.423 332.633ZM210 325.647C207.643 324.053 204.814 323.266 201.538 323.266V324.167C204.665 324.167 207.31 324.916 209.496 326.394L210 325.647ZM201.538 323.266C198.283 323.266 195.456 324.053 193.077 325.646L193.579 326.395C195.787 324.916 198.433 324.167 201.538 324.167V323.266ZM193.077 325.646C190.698 327.24 188.883 329.577 187.622 332.631L188.455 332.975C189.66 330.057 191.372 327.874 193.579 326.395L193.077 325.646ZM187.621 332.633C186.382 335.688 185.771 339.405 185.771 343.771H186.672C186.672 339.484 187.273 335.889 188.456 332.972L187.621 332.633ZM185.771 343.771C185.771 348.137 186.382 351.854 187.621 354.909L188.456 354.57C187.273 351.653 186.672 348.058 186.672 343.771H185.771ZM187.622 354.911C188.883 357.965 190.698 360.302 193.077 361.896L193.579 361.147C191.372 359.668 189.66 357.484 188.455 354.567L187.622 354.911ZM193.077 361.896C195.456 363.489 198.283 364.276 201.538 364.276V363.375C198.433 363.375 195.787 362.626 193.579 361.147L193.077 361.896ZM201.538 364.276C204.814 364.276 207.643 363.489 210 361.895L209.496 361.148C207.31 362.625 204.665 363.375 201.538 363.375V364.276ZM209.999 361.896C212.379 360.302 214.183 357.963 215.423 354.909L214.587 354.57C213.404 357.486 211.704 359.669 209.497 361.147L209.999 361.896ZM215.422 354.911C216.683 351.856 217.305 348.138 217.305 343.771H216.404C216.404 348.058 215.793 351.651 214.588 354.567L215.422 354.911ZM253.815 310.542L254.246 310.41L254.149 310.091H253.815V310.542ZM268.678 359.217L268.247 359.349L268.344 359.668H268.678V359.217ZM269.229 359.217V359.668H269.563L269.66 359.349L269.229 359.217ZM284.092 310.542V310.091H283.758L283.661 310.41L284.092 310.542ZM302.069 310.542L302.496 310.686L302.697 310.091H302.069V310.542ZM279.646 377V377.451H279.969L280.073 377.144L279.646 377ZM258.261 377L257.834 377.144L257.938 377.451H258.261V377ZM235.838 310.542V310.091H235.21L235.411 310.686L235.838 310.542ZM253.384 310.674L268.247 359.349L269.109 359.086L254.246 310.41L253.384 310.674ZM268.678 359.668H269.229V358.767H268.678V359.668ZM269.66 359.349L284.523 310.674L283.661 310.41L268.798 359.086L269.66 359.349ZM284.092 310.993H302.069V310.091H284.092V310.993ZM301.642 310.398L279.219 376.856L280.073 377.144L302.496 310.686L301.642 310.398ZM279.646 376.549H258.261V377.451H279.646V376.549ZM258.688 376.856L236.265 310.398L235.411 310.686L257.834 377.144L258.688 376.856ZM235.838 310.993H253.815V310.091H235.838V310.993ZM309.224 377H308.774V377.451H309.224V377ZM309.224 310.542V310.091H308.774V310.542H309.224ZM355.563 310.542H356.014V310.091H355.563V310.542ZM355.563 323.587V324.038H356.014V323.587H355.563ZM325.287 323.587V323.136H324.836V323.587H325.287ZM325.287 337.216H324.836V337.667H325.287V337.216ZM353.194 337.216H353.645V336.765H353.194V337.216ZM353.194 350.293V350.744H353.645V350.293H353.194ZM325.287 350.293V349.843H324.836V350.293H325.287ZM325.287 363.955H324.836V364.406H325.287V363.955ZM355.563 363.955H356.014V363.504H355.563V363.955ZM355.563 377V377.451H356.014V377H355.563ZM309.675 377V310.542H308.774V377H309.675ZM309.224 310.993H355.563V310.091H309.224V310.993ZM355.113 310.542V323.587H356.014V310.542H355.113ZM355.563 323.136H325.287V324.038H355.563V323.136ZM324.836 323.587V337.216H325.738V323.587H324.836ZM325.287 337.667H353.194V336.765H325.287V337.667ZM352.744 337.216V350.293H353.645V337.216H352.744ZM353.194 349.843H325.287V350.744H353.194V349.843ZM324.836 350.293V363.955H325.738V350.293H324.836ZM325.287 364.406H355.563V363.504H325.287V364.406ZM355.113 363.955V377H356.014V363.955H355.113ZM355.563 376.549H309.224V377.451H355.563V376.549ZM365.623 377H365.172V377.451H365.623V377ZM365.623 310.542V310.091H365.172V310.542H365.623ZM407.646 314.533L407.43 314.929L407.432 314.93L407.646 314.533ZM419.003 325.956L418.606 326.168L418.606 326.169L419.003 325.956ZM419.003 361.586L418.606 361.374L418.605 361.375L419.003 361.586ZM407.678 373.041L407.892 373.438L407.893 373.437L407.678 373.041ZM381.686 363.306H381.235V363.757H381.686V363.306ZM399.014 361.424L399.211 361.829L399.213 361.828L399.014 361.424ZM404.888 355.226L404.479 355.035L404.478 355.037L404.888 355.226ZM404.888 332.316L404.48 332.508L404.48 332.509L404.888 332.316ZM398.949 326.15L398.75 326.555L398.754 326.557L398.949 326.15ZM381.686 324.236V323.785H381.235V324.236H381.686ZM390.188 376.549H365.623V377.451H390.188V376.549ZM366.073 377V310.542H365.172V377H366.073ZM365.623 310.993H390.155V310.091H365.623V310.993ZM390.155 310.993C396.867 310.993 402.62 312.311 407.43 314.929L407.861 314.137C402.893 311.434 396.986 310.091 390.155 310.091V310.993ZM407.432 314.93C412.264 317.527 415.986 321.27 418.606 326.168L419.401 325.743C416.699 320.69 412.849 316.818 407.859 314.136L407.432 314.93ZM418.606 326.169C421.225 331.044 422.544 336.895 422.544 343.739H423.445C423.445 336.78 422.104 330.775 419.4 325.743L418.606 326.169ZM422.544 343.739C422.544 350.604 421.225 356.477 418.606 361.374L419.401 361.799C422.104 356.744 423.445 350.719 423.445 343.739H422.544ZM418.605 361.375C416.007 366.273 412.296 370.027 407.464 372.645L407.893 373.437C412.882 370.734 416.721 366.851 419.402 361.797L418.605 361.375ZM407.465 372.644C402.632 375.241 396.878 376.549 390.188 376.549V377.451C396.996 377.451 402.903 376.119 407.892 373.438L407.465 372.644ZM381.686 363.757H389.571V362.855H381.686V363.757ZM389.571 363.757C393.341 363.757 396.56 363.121 399.211 361.829L398.817 361.019C396.319 362.236 393.243 362.855 389.571 362.855V363.757ZM399.213 361.828C401.91 360.502 403.938 358.356 405.297 355.415L404.478 355.037C403.198 357.807 401.31 359.793 398.815 361.019L399.213 361.828ZM405.296 355.416C406.676 352.457 407.35 348.555 407.35 343.739H406.449C406.449 348.484 405.782 352.24 404.479 355.035L405.296 355.416ZM407.35 343.739C407.35 338.923 406.676 335.041 405.295 332.123L404.48 332.509C405.782 335.259 406.449 338.992 406.449 343.739H407.35ZM405.295 332.124C403.914 329.184 401.864 327.048 399.144 325.744L398.754 326.557C401.27 327.763 403.178 329.737 404.48 332.508L405.295 332.124ZM399.148 325.746C396.474 324.431 393.199 323.785 389.344 323.785V324.687C393.103 324.687 396.233 325.317 398.75 326.555L399.148 325.746ZM389.344 323.785H381.686V324.687H389.344V323.785ZM381.235 324.236V363.306H382.136V324.236H381.235Z" fill="url(#paint4_linear_1035_893)"/>
</g>
<g opacity="0.3">
<g opacity="0.6" filter="url(#filter0_f_1035_893)">
<circle cx="25" cy="32" r="181" fill="black"/>
</g>
<g opacity="0.46" filter="url(#filter1_f_1035_893)">
<circle cx="421.5" cy="74.5" r="103.5" fill="black"/>
</g>
<g opacity="0.6" filter="url(#filter2_f_1035_893)">
<circle cx="213.5" cy="407.5" r="316.5" fill="black"/>
</g>
</g>
</g>
<defs>
<filter id="filter0_f_1035_893" x="-306" y="-299" width="662" height="662" filterUnits="userSpaceOnUse" color-interpolation-filters="sRGB">
<feFlood flood-opacity="0" result="BackgroundImageFix"/>
<feBlend mode="normal" in="SourceGraphic" in2="BackgroundImageFix" result="shape"/>
<feGaussianBlur stdDeviation="75" result="effect1_foregroundBlur_1035_893"/>
</filter>
<filter id="filter1_f_1035_893" x="218" y="-129" width="407" height="407" filterUnits="userSpaceOnUse" color-interpolation-filters="sRGB">
<feFlood flood-opacity="0" result="BackgroundImageFix"/>
<feBlend mode="normal" in="SourceGraphic" in2="BackgroundImageFix" result="shape"/>
<feGaussianBlur stdDeviation="50" result="effect1_foregroundBlur_1035_893"/>
</filter>
<filter id="filter2_f_1035_893" x="-253" y="-59" width="933" height="933" filterUnits="userSpaceOnUse" color-interpolation-filters="sRGB">
<feFlood flood-opacity="0" result="BackgroundImageFix"/>
<feBlend mode="normal" in="SourceGraphic" in2="BackgroundImageFix" result="shape"/>
<feGaussianBlur stdDeviation="75" result="effect1_foregroundBlur_1035_893"/>
</filter>
<radialGradient id="paint0_angular_1035_893" cx="0" cy="0" r="1" gradientUnits="userSpaceOnUse" gradientTransform="translate(428) rotate(180) scale(428 409.808)">
<stop offset="0.682292" stop-color="#F225A0"/>
<stop offset="1" stop-color="#33001B"/>
</radialGradient>
<linearGradient id="paint1_linear_1035_893" x1="213.5" y1="-10" x2="213.5" y2="91" gradientUnits="userSpaceOnUse">
<stop stop-color="white"/>
<stop offset="1" stop-color="white" stop-opacity="0"/>
</linearGradient>
<linearGradient id="paint2_linear_1035_893" x1="213.5" y1="91" x2="213.5" y2="192" gradientUnits="userSpaceOnUse">
<stop stop-color="white"/>
<stop offset="1" stop-color="white" stop-opacity="0"/>
</linearGradient>
<linearGradient id="paint3_linear_1035_893" x1="213.5" y1="192" x2="213.5" y2="293" gradientUnits="userSpaceOnUse">
<stop stop-color="white"/>
<stop offset="1" stop-color="white" stop-opacity="0"/>
</linearGradient>
<linearGradient id="paint4_linear_1035_893" x1="213.5" y1="293" x2="213.5" y2="394" gradientUnits="userSpaceOnUse">
<stop stop-color="white"/>
<stop offset="1" stop-color="white" stop-opacity="0"/>
</linearGradient>
<clipPath id="clip0_1035_893">
<rect width="428" height="350" fill="white"/>
</clipPath>
</defs>
</svg>
