<svg width="419" height="69" viewBox="0 0 419 69" fill="none" xmlns="http://www.w3.org/2000/svg">
<path d="M0.0297866 68H-0.42088V68.4507H0.0297866V68ZM0.0297866 1.54192V1.09125H-0.42088V1.54192H0.0297866ZM40.2356 3.65118L40.0613 4.06679L40.0623 4.06718L40.2356 3.65118ZM47.829 9.55713L47.454 9.80712L47.4555 9.80932L47.829 9.55713ZM48.8025 25.1332L49.1993 25.3469L49.2003 25.3451L48.8025 25.1332ZM44.4217 30.0332L44.1638 29.6636L44.4217 30.0332ZM37.9641 32.759L37.8705 32.3182L37.5134 32.394V32.759H37.9641ZM37.9641 33.408H37.5134V33.8374L37.9423 33.8582L37.9641 33.408ZM45.3952 35.5822L45.1688 35.9719L45.1704 35.9728L45.3952 35.5822ZM50.9118 41.0988L50.5231 41.3269L50.5241 41.3285L50.9118 41.0988ZM50.2628 58.9788L50.6404 59.2248L50.6413 59.2234L50.2628 58.9788ZM42.3773 65.5987L42.5675 66.0073L42.5696 66.0063L42.3773 65.5987ZM16.0927 55.0524H15.642V55.503H16.0927V55.0524ZM33.7131 53.0729L33.4333 52.7196L33.431 52.7214L33.7131 53.0729ZM35.0111 43.1431L34.6312 43.3855L34.6331 43.3885L35.0111 43.1431ZM31.6039 40.2551L31.412 40.6628L31.4169 40.6651L31.6039 40.2551ZM16.0927 39.2166V38.766H15.642V39.2166H16.0927ZM16.0927 28.865H15.642V29.3157H16.0927V28.865ZM32.837 25.4577L32.4688 25.1978L32.4654 25.2027L32.837 25.4577ZM31.6363 16.2094L31.9196 15.8589L31.6363 16.2094ZM16.0927 14.2949V13.8442H15.642V14.2949H16.0927ZM0.480453 68V1.54192H-0.42088V68H0.480453ZM0.0297866 1.99258H27.7423V1.09125H0.0297866V1.99258ZM27.7423 1.99258C32.6788 1.99258 36.7796 2.69059 40.0613 4.06678L40.4099 3.23558C36.9852 1.79942 32.7572 1.09125 27.7423 1.09125V1.99258ZM40.0623 4.06718C43.3718 5.44614 45.8252 7.36385 47.454 9.80711L48.204 9.30714C46.458 6.68816 43.8491 4.66857 40.409 3.23518L40.0623 4.06718ZM47.4555 9.80932C49.1097 12.2592 49.9419 15.1009 49.9419 18.3511H50.8432C50.8432 14.9382 49.9664 11.9173 48.2025 9.30494L47.4555 9.80932ZM49.9419 18.3511C49.9419 20.8176 49.426 23.004 48.4047 24.9214L49.2003 25.3451C50.2991 23.282 50.8432 20.947 50.8432 18.3511H49.9419ZM48.4057 24.9196C47.3796 26.8251 45.9673 28.4054 44.1638 29.6636L44.6796 30.4028C46.5971 29.065 48.1053 27.3786 49.1993 25.3469L48.4057 24.9196ZM44.1638 29.6636C42.3576 30.9238 40.2621 31.8102 37.8705 32.3182L38.0577 33.1999C40.5553 32.6694 42.7649 31.7387 44.6796 30.4028L44.1638 29.6636ZM37.5134 32.759V33.408H38.4148V32.759H37.5134ZM37.9423 33.8582C40.5545 33.9846 42.9611 34.6893 45.1688 35.9719L45.6216 35.1925C43.2863 33.8358 40.7388 33.0911 37.9859 32.9579L37.9423 33.8582ZM45.1704 35.9728C47.3935 37.2521 49.1768 39.034 50.5231 41.3269L51.3004 40.8706C49.8776 38.4474 47.9833 36.5516 45.62 35.1916L45.1704 35.9728ZM50.5241 41.3285C51.8605 43.5838 52.5379 46.2705 52.5379 49.406H53.4392C53.4392 46.138 52.7321 43.2865 51.2995 40.869L50.5241 41.3285ZM52.5379 49.406C52.5379 52.8948 51.6512 55.9997 49.8842 58.7343L50.6413 59.2234C52.5087 56.3333 53.4392 53.0563 53.4392 49.406H52.5379ZM49.8851 58.7329C48.1197 61.4441 45.5602 63.5991 42.1851 65.1911L42.5696 66.0063C46.074 64.3533 48.7714 62.095 50.6404 59.2248L49.8851 58.7329ZM42.1872 65.1901C38.8218 66.7564 34.7152 67.5493 29.8516 67.5493V68.4507C34.8095 68.4507 39.0534 67.6428 42.5675 66.0073L42.1872 65.1901ZM29.8516 67.5493H0.0297866V68.4507H29.8516V67.5493ZM16.0927 55.503H26.0224V54.6017H16.0927V55.503ZM26.0224 55.503C29.5464 55.503 32.2335 54.8383 33.9952 53.4244L33.431 52.7214C31.9044 53.9467 29.4644 54.6017 26.0224 54.6017V55.503ZM33.993 53.4261C35.7795 52.0109 36.6625 50.0349 36.6625 47.5564H35.7611C35.7611 49.7939 34.9784 51.4956 33.4333 52.7196L33.993 53.4261ZM36.6625 47.5564C36.6625 45.7747 36.2443 44.2152 35.3891 42.8977L34.6331 43.3885C35.3788 44.5373 35.7611 45.9199 35.7611 47.5564H36.6625ZM35.3911 42.9007C34.5398 41.5663 33.3339 40.5485 31.7908 39.845L31.4169 40.6651C32.8159 41.3029 33.8816 42.2104 34.6312 43.3855L35.3911 42.9007ZM31.7958 39.8473C30.251 39.1203 28.419 38.766 26.3145 38.766V39.6673C28.3203 39.6673 30.0146 40.0052 31.412 40.6628L31.7958 39.8473ZM26.3145 38.766H16.0927V39.6673H26.3145V38.766ZM15.642 39.2166V55.0524H16.5433V39.2166H15.642ZM16.0927 29.3157H24.984V28.4143H16.0927V29.3157ZM24.984 29.3157C26.7864 29.3157 28.4061 29.0152 29.8344 28.4031L29.4793 27.5746C28.1818 28.1307 26.6862 28.4143 24.984 28.4143V29.3157ZM29.8344 28.4031C31.267 27.7891 32.398 26.8939 33.2086 25.7127L32.4654 25.2027C31.7617 26.2282 30.7725 27.0204 29.4793 27.5746L29.8344 28.4031ZM33.2052 25.7176C34.0456 24.5271 34.4558 23.1023 34.4558 21.4664H33.5545C33.5545 22.9457 33.186 24.1818 32.4688 25.1978L33.2052 25.7176ZM34.4558 21.4664C34.4558 19.1171 33.6159 17.2299 31.9196 15.8589L31.353 16.5599C32.8152 17.7417 33.5545 19.3591 33.5545 21.4664H34.4558ZM31.9196 15.8589C30.2376 14.4995 27.996 13.8442 25.2436 13.8442V14.7455C27.8564 14.7455 29.8765 15.3666 31.353 16.5599L31.9196 15.8589ZM25.2436 13.8442H16.0927V14.7455H25.2436V13.8442ZM15.642 14.2949V28.865H16.5433V14.2949H15.642ZM60.7117 68H60.2611V68.4507H60.7117V68ZM60.7117 1.54192V1.09125H60.2611V1.54192H60.7117ZM107.051 1.54192H107.501V1.09125H107.051V1.54192ZM107.051 14.5869V15.0376H107.501V14.5869H107.051ZM76.7746 14.5869V14.1362H76.3239V14.5869H76.7746ZM76.7746 28.216H76.3239V28.6667H76.7746V28.216ZM104.682 28.216H105.132V27.7653H104.682V28.216ZM104.682 41.2935V41.7441H105.132V41.2935H104.682ZM76.7746 41.2935V40.8428H76.3239V41.2935H76.7746ZM76.7746 54.955H76.3239V55.4057H76.7746V54.955ZM107.051 54.955H107.501V54.5043H107.051V54.955ZM107.051 68V68.4507H107.501V68H107.051ZM61.1624 68V1.54192H60.2611V68H61.1624ZM60.7117 1.99258H107.051V1.09125H60.7117V1.99258ZM106.6 1.54192V14.5869H107.501V1.54192H106.6ZM107.051 14.1362H76.7746V15.0376H107.051V14.1362ZM76.3239 14.5869V28.216H77.2253V14.5869H76.3239ZM76.7746 28.6667H104.682V27.7653H76.7746V28.6667ZM104.231 28.216V41.2935H105.132V28.216H104.231ZM104.682 40.8428H76.7746V41.7441H104.682V40.8428ZM76.3239 41.2935V54.955H77.2253V41.2935H76.3239ZM76.7746 55.4057H107.051V54.5043H76.7746V55.4057ZM106.6 54.955V68H107.501V54.955H106.6ZM107.051 67.5493H60.7117V68.4507H107.051V67.5493ZM117.11 68H116.66V68.4507H117.11V68ZM117.11 1.54192V1.09125H116.66V1.54192H117.11ZM133.173 1.54192H133.624V1.09125H133.173V1.54192ZM133.173 54.955H132.722V55.4057H133.173V54.955ZM160.821 54.955H161.271V54.5043H160.821V54.955ZM160.821 68V68.4507H161.271V68H160.821ZM117.561 68V1.54192H116.66V68H117.561ZM117.11 1.99258H133.173V1.09125H117.11V1.99258ZM132.722 1.54192V54.955H133.624V1.54192H132.722ZM133.173 55.4057H160.821V54.5043H133.173V55.4057ZM160.37 54.955V68H161.271V54.955H160.37ZM160.821 67.5493H117.11V68.4507H160.821V67.5493ZM225.056 53.3649L224.662 53.1468L225.056 53.3649ZM213.633 64.9497L213.416 64.5547L213.416 64.5551L213.633 64.9497ZM181.41 64.9172L181.63 64.5234L181.41 64.9172ZM170.02 53.3325L169.625 53.5494L169.626 53.5514L170.02 53.3325ZM170.02 16.177L169.626 15.9588L169.625 15.9601L170.02 16.177ZM181.41 4.59224L181.628 4.98678L181.41 4.59224ZM213.633 4.59224L213.416 4.98678L213.416 4.9872L213.633 4.59224ZM225.056 16.177L224.662 16.3951L225.056 16.177ZM211.005 23.8028L210.587 23.9722L210.588 23.9748L211.005 23.8028ZM205.748 17.0207L205.496 17.394L205.497 17.3951L205.748 17.0207ZM189.328 17.0207L189.579 17.3951L189.328 17.0207ZM184.039 23.8028L183.622 23.6307L183.621 23.6333L184.039 23.8028ZM184.039 45.7391L183.621 45.9086L183.622 45.9112L184.039 45.7391ZM189.328 52.5212L189.579 52.1468L189.328 52.5212ZM205.748 52.5212L205.497 52.1468L205.496 52.1479L205.748 52.5212ZM211.005 45.7391L210.588 45.5671L210.587 45.5697L211.005 45.7391ZM228.824 34.771C228.824 42.0261 227.429 48.1448 224.662 53.1468L225.45 53.5831C228.308 48.4173 229.725 42.14 229.725 34.771H228.824ZM224.662 53.1468C221.888 58.1609 218.14 61.9589 213.416 64.5547L213.85 65.3446C218.732 62.6618 222.599 58.7368 225.45 53.5831L224.662 53.1468ZM213.416 64.5551C208.707 67.1544 203.418 68.4579 197.538 68.4579V69.3593C203.557 69.3593 208.998 68.0236 213.851 65.3442L213.416 64.5551ZM197.538 68.4579C191.637 68.4579 186.337 67.1437 181.63 64.5234L181.191 65.311C186.045 68.0126 191.498 69.3593 197.538 69.3593V68.4579ZM181.63 64.5234C176.926 61.9058 173.188 58.1069 170.414 53.1136L169.626 53.5514C172.477 58.6826 176.332 62.6068 181.191 65.311L181.63 64.5234ZM170.415 53.1156C167.669 48.1132 166.285 42.0048 166.285 34.771H165.384C165.384 42.1181 166.79 48.3841 169.625 53.5494L170.415 53.1156ZM166.285 34.771C166.285 27.5153 167.669 21.3961 170.415 16.3938L169.625 15.9601C166.79 21.1256 165.384 27.4024 165.384 34.771H166.285ZM170.415 16.3951C173.189 11.3805 176.926 7.58241 181.628 4.98678L181.193 4.1977C176.332 6.88064 172.477 10.8057 169.626 15.9588L170.415 16.3951ZM181.628 4.98678C186.336 2.38768 191.636 1.08398 197.538 1.08398V0.182644C191.498 0.182644 186.046 1.51823 181.193 4.1977L181.628 4.98678ZM197.538 1.08398C203.418 1.08398 208.707 2.38755 213.416 4.98678L213.851 4.1977C208.998 1.51836 203.557 0.182644 197.538 0.182644V1.08398ZM213.416 4.9872C218.14 7.58297 221.888 11.3811 224.662 16.3951L225.45 15.9588C222.599 10.8051 218.732 6.88008 213.85 4.19728L213.416 4.9872ZM224.662 16.3951C227.429 21.3971 228.824 27.5158 228.824 34.771H229.725C229.725 27.4019 228.308 21.1246 225.45 15.9588L224.662 16.3951ZM213.305 34.771C213.305 30.4041 212.683 26.6858 211.422 23.6307L210.588 23.9748C211.793 26.8906 212.404 30.4844 212.404 34.771H213.305ZM211.423 23.6333C210.183 20.5788 208.379 18.2403 205.999 16.6462L205.497 17.3951C207.704 18.873 209.404 21.056 210.587 23.9722L211.423 23.6333ZM206 16.6474C203.643 15.053 200.814 14.266 197.538 14.266V15.1674C200.665 15.1674 203.31 15.9164 205.496 17.394L206 16.6474ZM197.538 14.266C194.283 14.266 191.456 15.0533 189.077 16.6462L189.579 17.3951C191.787 15.9161 194.433 15.1674 197.538 15.1674V14.266ZM189.077 16.6462C186.698 18.2398 184.883 20.5773 183.622 23.6307L184.455 23.9748C185.66 21.0574 187.372 18.8735 189.579 17.3951L189.077 16.6462ZM183.621 23.6333C182.382 26.6876 181.771 30.4049 181.771 34.771H182.672C182.672 30.4836 183.273 26.8888 184.456 23.9722L183.621 23.6333ZM181.771 34.771C181.771 39.137 182.382 42.8543 183.621 45.9086L184.456 45.5697C183.273 42.6531 182.672 39.0583 182.672 34.771H181.771ZM183.622 45.9112C184.883 48.9646 186.698 51.3021 189.077 52.8957L189.579 52.1468C187.372 50.6684 185.66 48.4845 184.455 45.5671L183.622 45.9112ZM189.077 52.8957C191.456 54.4886 194.283 55.2759 197.538 55.2759V54.3745C194.433 54.3745 191.787 53.6258 189.579 52.1468L189.077 52.8957ZM197.538 55.2759C200.814 55.2759 203.643 54.489 206 52.8946L205.496 52.1479C203.31 53.6255 200.665 54.3745 197.538 54.3745V55.2759ZM205.999 52.8957C208.379 51.3016 210.183 48.9632 211.423 45.9086L210.587 45.5697C209.404 48.486 207.704 50.6689 205.497 52.1468L205.999 52.8957ZM211.422 45.9112C212.683 42.8561 213.305 39.1378 213.305 34.771H212.404C212.404 39.0575 211.793 42.6513 210.588 45.5671L211.422 45.9112ZM249.815 1.54192L250.246 1.41031L250.149 1.09125H249.815V1.54192ZM264.678 50.2173L264.247 50.3489L264.344 50.6679H264.678V50.2173ZM265.229 50.2173V50.6679H265.563L265.66 50.3489L265.229 50.2173ZM280.092 1.54192V1.09125H279.758L279.661 1.41031L280.092 1.54192ZM298.069 1.54192L298.496 1.686L298.697 1.09125H298.069V1.54192ZM275.646 68V68.4507H275.969L276.073 68.1441L275.646 68ZM254.261 68L253.834 68.1441L253.938 68.4507H254.261V68ZM231.838 1.54192V1.09125H231.21L231.411 1.686L231.838 1.54192ZM249.384 1.67352L264.247 50.3489L265.109 50.0857L250.246 1.41031L249.384 1.67352ZM264.678 50.6679H265.229V49.7666H264.678V50.6679ZM265.66 50.3489L280.523 1.67352L279.661 1.41031L264.798 50.0857L265.66 50.3489ZM280.092 1.99258H298.069V1.09125H280.092V1.99258ZM297.642 1.39784L275.219 67.8559L276.073 68.1441L298.496 1.686L297.642 1.39784ZM275.646 67.5493H254.261V68.4507H275.646V67.5493ZM254.688 67.8559L232.265 1.39784L231.411 1.686L253.834 68.1441L254.688 67.8559ZM231.838 1.99258H249.815V1.09125H231.838V1.99258ZM305.224 68H304.774V68.4507H305.224V68ZM305.224 1.54192V1.09125H304.774V1.54192H305.224ZM351.563 1.54192H352.014V1.09125H351.563V1.54192ZM351.563 14.5869V15.0376H352.014V14.5869H351.563ZM321.287 14.5869V14.1362H320.836V14.5869H321.287ZM321.287 28.216H320.836V28.6667H321.287V28.216ZM349.194 28.216H349.645V27.7653H349.194V28.216ZM349.194 41.2935V41.7441H349.645V41.2935H349.194ZM321.287 41.2935V40.8428H320.836V41.2935H321.287ZM321.287 54.955H320.836V55.4057H321.287V54.955ZM351.563 54.955H352.014V54.5043H351.563V54.955ZM351.563 68V68.4507H352.014V68H351.563ZM305.675 68V1.54192H304.774V68H305.675ZM305.224 1.99258H351.563V1.09125H305.224V1.99258ZM351.113 1.54192V14.5869H352.014V1.54192H351.113ZM351.563 14.1362H321.287V15.0376H351.563V14.1362ZM320.836 14.5869V28.216H321.738V14.5869H320.836ZM321.287 28.6667H349.194V27.7653H321.287V28.6667ZM348.744 28.216V41.2935H349.645V28.216H348.744ZM349.194 40.8428H321.287V41.7441H349.194V40.8428ZM320.836 41.2935V54.955H321.738V41.2935H320.836ZM321.287 55.4057H351.563V54.5043H321.287V55.4057ZM351.113 54.955V68H352.014V54.955H351.113ZM351.563 67.5493H305.224V68.4507H351.563V67.5493ZM361.623 68H361.172V68.4507H361.623V68ZM361.623 1.54192V1.09125H361.172V1.54192H361.623ZM403.646 5.5333L403.43 5.92914L403.432 5.93027L403.646 5.5333ZM415.003 16.9558L414.606 17.1683L414.606 17.169L415.003 16.9558ZM415.003 52.5861L414.606 52.3736L414.605 52.375L415.003 52.5861ZM403.678 64.0411L403.892 64.438L403.893 64.4373L403.678 64.0411ZM377.686 54.306H377.235V54.7567H377.686V54.306ZM395.014 52.4239L395.211 52.829L395.213 52.8283L395.014 52.4239ZM400.888 46.2259L400.479 46.0355L400.478 46.0368L400.888 46.2259ZM400.888 23.316L400.48 23.5076L400.48 23.5088L400.888 23.316ZM394.949 17.1505L394.75 17.5549L394.754 17.5569L394.949 17.1505ZM377.686 15.2359V14.7852H377.235V15.2359H377.686ZM386.188 67.5493H361.623V68.4507H386.188V67.5493ZM362.073 68V1.54192H361.172V68H362.073ZM361.623 1.99258H386.155V1.09125H361.623V1.99258ZM386.155 1.99258C392.867 1.99258 398.62 3.3112 403.43 5.92914L403.861 5.13746C398.893 2.43356 392.986 1.09125 386.155 1.09125V1.99258ZM403.432 5.93027C408.264 8.527 411.986 12.2699 414.606 17.1683L415.401 16.7433C412.699 11.6903 408.849 7.81817 403.859 5.13633L403.432 5.93027ZM414.606 17.169C417.225 22.0442 418.544 27.8951 418.544 34.7385H419.445C419.445 27.7797 418.104 21.7755 415.4 16.7425L414.606 17.169ZM418.544 34.7385C418.544 41.6037 417.225 47.4765 414.606 52.3736L415.401 52.7987C418.104 47.7443 419.445 41.7188 419.445 34.7385H418.544ZM414.605 52.375C412.007 57.273 408.296 61.0266 403.464 63.6448L403.893 64.4373C408.882 61.7337 412.721 57.8507 415.402 52.7973L414.605 52.375ZM403.465 63.6441C398.632 66.2414 392.878 67.5493 386.188 67.5493V68.4507C392.996 68.4507 398.903 67.1193 403.892 64.438L403.465 63.6441ZM377.686 54.7567H385.571V53.8553H377.686V54.7567ZM385.571 54.7567C389.341 54.7567 392.56 54.1213 395.211 52.829L394.817 52.0188C392.319 53.236 389.243 53.8553 385.571 53.8553V54.7567ZM395.213 52.8283C397.91 51.5023 399.938 49.3556 401.297 46.4149L400.478 46.0368C399.198 48.8075 397.31 50.7927 394.815 52.0195L395.213 52.8283ZM401.296 46.4163C402.676 43.457 403.35 39.555 403.35 34.7385H402.449C402.449 39.484 401.782 43.2403 400.479 46.0355L401.296 46.4163ZM403.35 34.7385C403.35 29.9226 402.676 26.0408 401.295 23.1232L400.48 23.5088C401.782 26.2593 402.449 29.9925 402.449 34.7385H403.35ZM401.295 23.1244C399.914 20.1835 397.864 18.0477 395.144 16.7441L394.754 17.5569C397.27 18.7627 399.178 20.7373 400.48 23.5076L401.295 23.1244ZM395.148 16.7461C392.474 15.4312 389.199 14.7852 385.344 14.7852V15.6866C389.103 15.6866 392.233 16.317 394.75 17.5549L395.148 16.7461ZM385.344 14.7852H377.686V15.6866H385.344V14.7852ZM377.235 15.2359V54.306H378.136V15.2359H377.235Z" fill="url(#paint0_linear_1035_896)"/>
<defs>
<linearGradient id="paint0_linear_1035_896" x1="209.5" y1="-16" x2="209.5" y2="85" gradientUnits="userSpaceOnUse">
<stop stop-color="white"/>
<stop offset="1" stop-color="white" stop-opacity="0"/>
</linearGradient>
</defs>
</svg>
