<svg width="29" height="32" viewBox="0 0 29 32" fill="none" xmlns="http://www.w3.org/2000/svg">
<path d="M14.1176 19.2C13.6732 19.2 13.3007 19.0467 13 18.74C12.6993 18.4333 12.549 18.0533 12.549 17.6C12.549 17.1467 12.6993 16.7667 13 16.46C13.3007 16.1533 13.6732 16 14.1176 16C14.5621 16 14.9346 16.1533 15.2353 16.46C15.5359 16.7667 15.6863 17.1467 15.6863 17.6C15.6863 18.0533 15.5359 18.4333 15.2353 18.74C14.9346 19.0467 14.5621 19.2 14.1176 19.2ZM7.84314 19.2C7.39869 19.2 7.02614 19.0467 6.72549 18.74C6.42484 18.4333 6.27451 18.0533 6.27451 17.6C6.27451 17.1467 6.42484 16.7667 6.72549 16.46C7.02614 16.1533 7.39869 16 7.84314 16C8.28758 16 8.66013 16.1533 8.96078 16.46C9.26144 16.7667 9.41177 17.1467 9.41177 17.6C9.41177 18.0533 9.26144 18.4333 8.96078 18.74C8.66013 19.0467 8.28758 19.2 7.84314 19.2ZM20.3922 19.2C19.9477 19.2 19.5752 19.0467 19.2745 18.74C18.9739 18.4333 18.8235 18.0533 18.8235 17.6C18.8235 17.1467 18.9739 16.7667 19.2745 16.46C19.5752 16.1533 19.9477 16 20.3922 16C20.8366 16 21.2092 16.1533 21.5098 16.46C21.8105 16.7667 21.9608 17.1467 21.9608 17.6C21.9608 18.0533 21.8105 18.4333 21.5098 18.74C21.2092 19.0467 20.8366 19.2 20.3922 19.2ZM14.1176 25.6C13.6732 25.6 13.3007 25.4467 13 25.14C12.6993 24.8333 12.549 24.4533 12.549 24C12.549 23.5467 12.6993 23.1667 13 22.86C13.3007 22.5533 13.6732 22.4 14.1176 22.4C14.5621 22.4 14.9346 22.5533 15.2353 22.86C15.5359 23.1667 15.6863 23.5467 15.6863 24C15.6863 24.4533 15.5359 24.8333 15.2353 25.14C14.9346 25.4467 14.5621 25.6 14.1176 25.6ZM7.84314 25.6C7.39869 25.6 7.02614 25.4467 6.72549 25.14C6.42484 24.8333 6.27451 24.4533 6.27451 24C6.27451 23.5467 6.42484 23.1667 6.72549 22.86C7.02614 22.5533 7.39869 22.4 7.84314 22.4C8.28758 22.4 8.66013 22.5533 8.96078 22.86C9.26144 23.1667 9.41177 23.5467 9.41177 24C9.41177 24.4533 9.26144 24.8333 8.96078 25.14C8.66013 25.4467 8.28758 25.6 7.84314 25.6ZM20.3922 25.6C19.9477 25.6 19.5752 25.4467 19.2745 25.14C18.9739 24.8333 18.8235 24.4533 18.8235 24C18.8235 23.5467 18.9739 23.1667 19.2745 22.86C19.5752 22.5533 19.9477 22.4 20.3922 22.4C20.8366 22.4 21.2092 22.5533 21.5098 22.86C21.8105 23.1667 21.9608 23.5467 21.9608 24C21.9608 24.4533 21.8105 24.8333 21.5098 25.14C21.2092 25.4467 20.8366 25.6 20.3922 25.6ZM2.35294 32C1.72549 32 1.17647 31.76 0.705882 31.28C0.235294 30.8 0 30.24 0 29.6V4.8C0 4.16 0.235294 3.6 0.705882 3.12C1.17647 2.64 1.72549 2.4 2.35294 2.4H4.90196V0H7.45098V2.4H20.7843V0H23.3333V2.4H25.8824C26.5098 2.4 27.0588 2.64 27.5294 3.12C28 3.6 28.2353 4.16 28.2353 4.8V29.6C28.2353 30.24 28 30.8 27.5294 31.28C27.0588 31.76 26.5098 32 25.8824 32H2.35294ZM2.35294 29.6H25.8824V12.4H2.35294V29.6Z" fill="#969696"/>
</svg>
