<svg width="44" height="39" viewBox="0 0 44 39" fill="none" xmlns="http://www.w3.org/2000/svg">
<path d="M21.64 30.996C24.232 30.996 26.41 30.114 28.174 28.35C29.938 26.586 30.82 24.408 30.82 21.816C30.82 19.188 29.938 17.001 28.174 15.255C26.41 13.509 24.232 12.636 21.64 12.636C19.012 12.636 16.825 13.509 15.079 15.255C13.333 17.001 12.46 19.188 12.46 21.816C12.46 24.408 13.333 26.586 15.079 28.35C16.825 30.114 19.012 30.996 21.64 30.996ZM3.28004 38.88C2.41604 38.88 1.66004 38.556 1.01204 37.908C0.364039 37.26 0.0400391 36.504 0.0400391 35.64V7.938C0.0400391 7.11 0.364039 6.363 1.01204 5.697C1.66004 5.031 2.41604 4.698 3.28004 4.698H11.218L15.16 0H28.12L32.062 4.698H40C40.828 4.698 41.575 5.031 42.241 5.697C42.907 6.363 43.24 7.11 43.24 7.938V35.64C43.24 36.504 42.907 37.26 42.241 37.908C41.575 38.556 40.828 38.88 40 38.88H3.28004Z" fill="#F0F0F0"/>
</svg>
