<svg width="285" height="46" viewBox="0 0 285 46" fill="none" xmlns="http://www.w3.org/2000/svg">
<path d="M25.5923 0.636363V7.77415H9.54119V37H0.752131V0.636363H25.5923ZM38.6783 37.5149C35.8137 37.5149 33.3516 36.929 31.2919 35.7571C29.2441 34.5734 27.6638 32.928 26.5511 30.821C25.4503 28.7022 24.8999 26.246 24.8999 23.4524C24.8999 20.647 25.4503 18.1908 26.5511 16.0838C27.6638 13.965 29.2441 12.3196 31.2919 11.1477C33.3516 9.96401 35.8137 9.37216 38.6783 9.37216C41.5429 9.37216 43.9991 9.96401 46.0469 11.1477C48.1065 12.3196 49.6868 13.965 50.7876 16.0838C51.9003 18.1908 52.4567 20.647 52.4567 23.4524C52.4567 26.246 51.9003 28.7022 50.7876 30.821C49.6868 32.928 48.1065 34.5734 46.0469 35.7571C43.9991 36.929 41.5429 37.5149 38.6783 37.5149ZM38.7315 30.9631C39.7732 30.9631 40.6551 30.6435 41.3771 30.0043C42.0992 29.3651 42.6496 28.4773 43.0284 27.3409C43.419 26.2045 43.6143 24.8906 43.6143 23.3991C43.6143 21.884 43.419 20.5582 43.0284 19.4219C42.6496 18.2855 42.0992 17.3977 41.3771 16.7585C40.6551 16.1193 39.7732 15.7997 38.7315 15.7997C37.6544 15.7997 36.7429 16.1193 35.9972 16.7585C35.2633 17.3977 34.701 18.2855 34.3104 19.4219C33.9316 20.5582 33.7422 21.884 33.7422 23.3991C33.7422 24.8906 33.9316 26.2045 34.3104 27.3409C34.701 28.4773 35.2633 29.3651 35.9972 30.0043C36.7429 30.6435 37.6544 30.9631 38.7315 30.9631ZM55.0224 45.0433V30.3061H57.0643C57.6798 29.9983 58.171 29.4065 58.538 28.5305C58.9049 27.6428 59.195 26.607 59.408 25.4233C59.6329 24.2277 59.7987 22.9848 59.9052 21.6946C60.0236 20.3925 60.1301 19.1674 60.2248 18.0192L60.864 9.72727H82.9521V30.3061H87.2134V45.0433H78.9748V37H63.4741V45.0433H55.0224ZM65.516 30.3061H74.8555V16.1903H68.1083L67.9663 18.0192C67.8005 20.9548 67.5401 23.4169 67.185 25.4055C66.8299 27.3942 66.2736 29.0277 65.516 30.3061ZM103.961 37.5149C101.097 37.5149 98.6348 36.929 96.5751 35.7571C94.5273 34.5734 92.947 32.928 91.8343 30.821C90.7335 28.7022 90.1831 26.246 90.1831 23.4524C90.1831 20.647 90.7335 18.1908 91.8343 16.0838C92.947 13.965 94.5273 12.3196 96.5751 11.1477C98.6348 9.96401 101.097 9.37216 103.961 9.37216C106.826 9.37216 109.282 9.96401 111.33 11.1477C113.39 12.3196 114.97 13.965 116.071 16.0838C117.184 18.1908 117.74 20.647 117.74 23.4524C117.74 26.246 117.184 28.7022 116.071 30.821C114.97 32.928 113.39 34.5734 111.33 35.7571C109.282 36.929 106.826 37.5149 103.961 37.5149ZM104.015 30.9631C105.056 30.9631 105.938 30.6435 106.66 30.0043C107.382 29.3651 107.933 28.4773 108.312 27.3409C108.702 26.2045 108.898 24.8906 108.898 23.3991C108.898 21.884 108.702 20.5582 108.312 19.4219C107.933 18.2855 107.382 17.3977 106.66 16.7585C105.938 16.1193 105.056 15.7997 104.015 15.7997C102.938 15.7997 102.026 16.1193 101.28 16.7585C100.546 17.3977 99.9842 18.2855 99.5936 19.4219C99.2148 20.5582 99.0254 21.884 99.0254 23.3991C99.0254 24.8906 99.2148 26.2045 99.5936 27.3409C99.9842 28.4773 100.546 29.3651 101.28 30.0043C102.026 30.6435 102.938 30.9631 104.015 30.9631ZM122.188 37V9.72727H133.96C137.475 9.72727 140.245 10.3606 142.269 11.6271C144.305 12.8819 145.323 14.7225 145.323 17.1491C145.323 18.5578 144.749 19.7711 143.601 20.7891C142.465 21.7952 140.849 22.4759 138.754 22.831C140.6 22.9257 142.133 23.2926 143.352 23.9318C144.572 24.571 145.483 25.3819 146.087 26.3643C146.691 27.3468 146.992 28.3944 146.992 29.5071C146.992 31.117 146.56 32.4782 145.696 33.5909C144.832 34.7036 143.566 35.55 141.896 36.13C140.239 36.71 138.203 37 135.789 37H122.188ZM130.267 30.7145H135.789C136.712 30.7145 137.434 30.4955 137.955 30.0575C138.487 29.6196 138.754 29.0159 138.754 28.2464C138.754 27.4179 138.487 26.7668 137.955 26.2933C137.434 25.8198 136.712 25.5831 135.789 25.5831H130.267V30.7145ZM130.267 20.8778H134.191C134.818 20.8778 135.356 20.7831 135.806 20.5938C136.256 20.4044 136.599 20.1321 136.836 19.777C137.085 19.4219 137.209 18.9957 137.209 18.4986C137.209 17.7765 136.919 17.2083 136.339 16.794C135.771 16.3797 134.978 16.1726 133.96 16.1726H130.267V20.8778ZM196.016 30.3594L195.448 44.8125H187.653V37H184.794V30.3594H196.016ZM151.289 9.72727H159.51V30.3061H166.346V9.72727H174.567V30.3061H181.403V9.72727H189.624V37H151.289V9.72727ZM208.241 25.7607L216.959 9.72727H225.304V37H217.083V20.9134L208.383 37H200.02V9.72727H208.241V25.7607ZM250.06 19.9723V26.5952H236.068V19.9723H250.06ZM239.051 9.72727V37H230.83V9.72727H239.051ZM255.298 9.72727V37H247.13V9.72727H255.298ZM268.255 37.4616C266.515 37.4616 264.97 37.1716 263.621 36.5916C262.283 35.9998 261.224 35.112 260.442 33.9283C259.673 32.7327 259.288 31.2353 259.288 29.4361C259.288 27.9209 259.555 26.6425 260.087 25.6009C260.62 24.5592 261.354 23.7128 262.289 23.0618C263.224 22.4107 264.301 21.9195 265.52 21.5881C266.74 21.2448 268.042 21.014 269.427 20.8956C270.977 20.7536 272.226 20.6056 273.173 20.4517C274.12 20.286 274.807 20.0552 275.233 19.7592C275.671 19.4515 275.89 19.0194 275.89 18.4631V18.3743C275.89 17.4628 275.576 16.7585 274.949 16.2614C274.321 15.7642 273.475 15.5156 272.41 15.5156C271.261 15.5156 270.338 15.7642 269.64 16.2614C268.941 16.7585 268.497 17.4451 268.308 18.321L260.3 18.0369C260.537 16.3797 261.147 14.9001 262.129 13.598C263.123 12.2841 264.485 11.2543 266.213 10.5085C267.953 9.75095 270.042 9.37216 272.481 9.37216C274.221 9.37216 275.825 9.57931 277.292 9.99361C278.76 10.3961 280.039 10.9879 281.128 11.7692C282.217 12.5386 283.057 13.4856 283.649 14.6101C284.253 15.7346 284.555 17.0189 284.555 18.4631V37H276.387V33.2003H276.174C275.689 34.1236 275.067 34.9048 274.309 35.544C273.564 36.1832 272.682 36.6626 271.664 36.9822C270.658 37.3018 269.521 37.4616 268.255 37.4616ZM270.936 31.7798C271.871 31.7798 272.711 31.5904 273.457 31.2116C274.215 30.8329 274.818 30.312 275.268 29.6491C275.718 28.9744 275.943 28.1932 275.943 27.3054V24.7131C275.694 24.8433 275.393 24.9616 275.037 25.0682C274.694 25.1747 274.315 25.2753 273.901 25.37C273.487 25.4647 273.061 25.5476 272.623 25.6186C272.185 25.6896 271.765 25.7547 271.362 25.8139C270.545 25.9441 269.847 26.1454 269.267 26.4176C268.699 26.6899 268.261 27.045 267.953 27.483C267.657 27.9091 267.509 28.4181 267.509 29.0099C267.509 29.9096 267.829 30.5961 268.468 31.0696C269.119 31.5431 269.942 31.7798 270.936 31.7798Z" fill="url(#paint0_linear_4234_3041)"/>
<defs>
<linearGradient id="paint0_linear_4234_3041" x1="288" y1="20.6471" x2="-2" y2="20.6471" gradientUnits="userSpaceOnUse">
<stop stop-color="#FF3347"/>
<stop offset="1" stop-color="#0177FF"/>
</linearGradient>
</defs>
</svg>
