<svg width="34" height="34" viewBox="0 0 34 34" fill="none" xmlns="http://www.w3.org/2000/svg">
<path d="M17 24.905C19.21 24.905 21.08 24.14 22.61 22.61C24.14 21.08 24.905 19.21 24.905 17C24.905 14.79 24.14 12.92 22.61 11.39C21.08 9.86 19.21 9.095 17 9.095C14.79 9.095 12.92 9.86 11.39 11.39C9.86 12.92 9.095 14.79 9.095 17C9.095 19.21 9.86 21.08 11.39 22.61C12.92 24.14 14.79 24.905 17 24.905ZM17 34C14.6767 34 12.4808 33.5537 10.4125 32.6613C8.34417 31.7688 6.53792 30.5504 4.99375 29.0063C3.44958 27.4621 2.23125 25.6558 1.33875 23.5875C0.44625 21.5192 0 19.3233 0 17C0 14.6483 0.44625 12.4383 1.33875 10.37C2.23125 8.30167 3.44958 6.5025 4.99375 4.9725C6.53792 3.4425 8.34417 2.23125 10.4125 1.33875C12.4808 0.44625 14.6767 0 17 0C19.3517 0 21.5617 0.44625 23.63 1.33875C25.6983 2.23125 27.4975 3.4425 29.0275 4.9725C30.5575 6.5025 31.7688 8.30167 32.6613 10.37C33.5537 12.4383 34 14.6483 34 17C34 19.3233 33.5537 21.5192 32.6613 23.5875C31.7688 25.6558 30.5575 27.4621 29.0275 29.0063C27.4975 30.5504 25.6983 31.7688 23.63 32.6613C21.5617 33.5537 19.3517 34 17 34Z" fill="#171717"/>
</svg>
