<svg width="29" height="29" viewBox="0 0 29 29" fill="none" xmlns="http://www.w3.org/2000/svg">
<path d="M2.41667 29C1.77222 29 1.20833 28.7583 0.725 28.275C0.241667 27.7917 0 27.2278 0 26.5833V2.41667C0 1.77222 0.241667 1.20833 0.725 0.725C1.20833 0.241667 1.77222 0 2.41667 0H21.025L29 7.975V26.5833C29 27.2278 28.7583 27.7917 28.275 28.275C27.7917 28.7583 27.2278 29 26.5833 29H2.41667ZM6.40417 22.1125H22.5958V19.6958H6.40417V22.1125ZM6.40417 15.7083H22.5958V13.2917H6.40417V15.7083ZM19.6958 9.30417H26.5833L19.6958 2.41667V9.30417ZM6.40417 9.30417H14.5V6.8875H6.40417V9.30417Z" fill="#171717"/>
</svg>
