<svg width="18" height="18" viewBox="0 0 18 18" fill="none" xmlns="http://www.w3.org/2000/svg">
<path d="M16.9519 3.42376C16.4028 3.9732 15.5122 3.9732 14.9631 3.42376L13.9214 2.38133C13.3721 1.83168 13.3721 0.940901 13.9214 0.391248C14.1897 0.122744 14.5251 -0.00755871 14.9276 0.00033845C15.3301 0.00823561 15.6655 0.146436 15.9338 0.414939L16.9519 1.43367C17.2202 1.70218 17.3543 2.03386 17.3543 2.42871C17.3543 2.82357 17.2202 3.15525 16.9519 3.42376ZM13.4488 3.89859C14.2853 4.7356 14.2853 6.09208 13.4488 6.92909L3.65814 16.7263C3.25628 17.1284 2.71109 17.3543 2.14259 17.3543C0.959271 17.3543 0 16.3936 0 15.2103C0 14.6418 0.225753 14.0959 0.627637 13.6938L10.4163 3.89859C11.2536 3.06079 12.6116 3.06079 13.4488 3.89859Z" fill="white"/>
</svg>
