<svg width="30" height="32" viewBox="0 0 30 32" fill="none" xmlns="http://www.w3.org/2000/svg">
<path d="M15 19.2C14.5555 19.2 14.183 19.0467 13.8823 18.74C13.5817 18.4333 13.4313 18.0533 13.4313 17.6C13.4313 17.1467 13.5817 16.7667 13.8823 16.46C14.183 16.1533 14.5555 16 15 16C15.4444 16 15.817 16.1533 16.1176 16.46C16.4183 16.7667 16.5686 17.1467 16.5686 17.6C16.5686 18.0533 16.4183 18.4333 16.1176 18.74C15.817 19.0467 15.4444 19.2 15 19.2ZM8.72546 19.2C8.28102 19.2 7.90847 19.0467 7.60781 18.74C7.30716 18.4333 7.15683 18.0533 7.15683 17.6C7.15683 17.1467 7.30716 16.7667 7.60781 16.46C7.90847 16.1533 8.28102 16 8.72546 16C9.16991 16 9.54245 16.1533 9.84311 16.46C10.1438 16.7667 10.2941 17.1467 10.2941 17.6C10.2941 18.0533 10.1438 18.4333 9.84311 18.74C9.54245 19.0467 9.16991 19.2 8.72546 19.2ZM21.2745 19.2C20.83 19.2 20.4575 19.0467 20.1568 18.74C19.8562 18.4333 19.7059 18.0533 19.7059 17.6C19.7059 17.1467 19.8562 16.7667 20.1568 16.46C20.4575 16.1533 20.83 16 21.2745 16C21.7189 16 22.0915 16.1533 22.3921 16.46C22.6928 16.7667 22.8431 17.1467 22.8431 17.6C22.8431 18.0533 22.6928 18.4333 22.3921 18.74C22.0915 19.0467 21.7189 19.2 21.2745 19.2ZM15 25.6C14.5555 25.6 14.183 25.4467 13.8823 25.14C13.5817 24.8333 13.4313 24.4533 13.4313 24C13.4313 23.5467 13.5817 23.1667 13.8823 22.86C14.183 22.5533 14.5555 22.4 15 22.4C15.4444 22.4 15.817 22.5533 16.1176 22.86C16.4183 23.1667 16.5686 23.5467 16.5686 24C16.5686 24.4533 16.4183 24.8333 16.1176 25.14C15.817 25.4467 15.4444 25.6 15 25.6ZM8.72546 25.6C8.28102 25.6 7.90847 25.4467 7.60781 25.14C7.30716 24.8333 7.15683 24.4533 7.15683 24C7.15683 23.5467 7.30716 23.1667 7.60781 22.86C7.90847 22.5533 8.28102 22.4 8.72546 22.4C9.16991 22.4 9.54245 22.5533 9.84311 22.86C10.1438 23.1667 10.2941 23.5467 10.2941 24C10.2941 24.4533 10.1438 24.8333 9.84311 25.14C9.54245 25.4467 9.16991 25.6 8.72546 25.6ZM21.2745 25.6C20.83 25.6 20.4575 25.4467 20.1568 25.14C19.8562 24.8333 19.7059 24.4533 19.7059 24C19.7059 23.5467 19.8562 23.1667 20.1568 22.86C20.4575 22.5533 20.83 22.4 21.2745 22.4C21.7189 22.4 22.0915 22.5533 22.3921 22.86C22.6928 23.1667 22.8431 23.5467 22.8431 24C22.8431 24.4533 22.6928 24.8333 22.3921 25.14C22.0915 25.4467 21.7189 25.6 21.2745 25.6ZM3.23527 32C2.60781 32 2.05879 31.76 1.58821 31.28C1.11762 30.8 0.882324 30.24 0.882324 29.6V4.8C0.882324 4.16 1.11762 3.6 1.58821 3.12C2.05879 2.64 2.60781 2.4 3.23527 2.4H5.78429V0H8.3333V2.4H21.6666V0H24.2157V2.4H26.7647C27.3921 2.4 27.9411 2.64 28.4117 3.12C28.8823 3.6 29.1176 4.16 29.1176 4.8V29.6C29.1176 30.24 28.8823 30.8 28.4117 31.28C27.9411 31.76 27.3921 32 26.7647 32H3.23527ZM3.23527 29.6H26.7647V12.4H3.23527V29.6Z" fill="#969696"/>
</svg>
