<svg width="25" height="23" viewBox="0 0 25 23" fill="none" xmlns="http://www.w3.org/2000/svg">
<path d="M12.5 22.75L11.2421 21.6143C9.07389 19.6293 7.28411 17.9154 5.87275 16.4727C4.46139 15.03 3.33639 13.7408 2.49775 12.605C1.65911 11.4693 1.07104 10.441 0.733545 9.52012C0.396045 8.59925 0.227295 7.66814 0.227295 6.72681C0.227295 4.88506 0.846045 3.34516 2.08354 2.10709C3.32104 0.869031 4.85002 0.25 6.67048 0.25C7.83639 0.25 8.91536 0.526262 9.90741 1.07879C10.8995 1.63131 11.7637 2.4294 12.5 3.47306C13.3591 2.36801 14.2693 1.55457 15.2307 1.03274C16.1921 0.510914 17.225 0.25 18.3296 0.25C20.15 0.25 21.679 0.869031 22.9165 2.10709C24.154 3.34516 24.7728 4.88506 24.7728 6.72681C24.7728 7.66814 24.604 8.59925 24.2665 9.52012C23.929 10.441 23.3409 11.4693 22.5023 12.605C21.6637 13.7408 20.5387 15.03 19.1273 16.4727C17.7159 17.9154 15.9262 19.6293 13.758 21.6143L12.5 22.75Z" fill="white"/>
</svg>
