<svg width="25" height="23" viewBox="0 0 25 23" fill="none" xmlns="http://www.w3.org/2000/svg">
<path d="M18.4125 15.7734C17.0188 17.198 15.2442 18.8977 13.0852 20.8744C13.0844 20.8751 13.0836 20.8759 13.0827 20.8767L12.5 21.4027L11.9173 20.8767C11.9165 20.8759 11.9157 20.8751 11.9148 20.8744C9.75581 18.8977 7.98124 17.198 6.58758 15.7734C5.19602 14.351 4.10456 13.0976 3.30221 12.011C2.49753 10.9213 1.96637 9.9779 1.67247 9.17601C1.37366 8.36069 1.22729 7.54586 1.22729 6.72681C1.22729 5.13483 1.75135 3.85398 2.79081 2.81404C3.83256 1.77182 5.10349 1.25 6.67048 1.25C7.67083 1.25 8.58167 1.48505 9.42083 1.95242C10.2663 2.4233 11.0222 3.11309 11.6829 4.04956L12.4611 5.15244L13.2895 4.08682C14.0866 3.06147 14.8966 2.35193 15.7078 1.91162C16.5212 1.47009 17.3899 1.25 18.3296 1.25C19.8966 1.25 21.1675 1.77182 22.2092 2.81404C23.2487 3.85398 23.7728 5.13483 23.7728 6.72681C23.7728 7.54586 23.6264 8.36069 23.3276 9.176C23.0337 9.9779 22.5025 10.9213 21.6978 12.011C20.8955 13.0976 19.804 14.351 18.4125 15.7734Z" stroke="#2C2C2E" stroke-width="2"/>
</svg>
