<svg width="22" height="24" viewBox="0 0 22 24" fill="none" xmlns="http://www.w3.org/2000/svg">
<path d="M2.0625 24C1.5125 24 1.03125 23.7943 0.61875 23.3829C0.20625 22.9714 0 22.4914 0 21.9429V2.05714C0 1.50857 0.20625 1.02857 0.61875 0.617143C1.03125 0.205714 1.5125 0 2.0625 0H19.9375C20.4875 0 20.9688 0.205714 21.3812 0.617143C21.7937 1.02857 22 1.50857 22 2.05714V21.9429C22 22.4914 21.7937 22.9714 21.3812 23.3829C20.9688 23.7943 20.4875 24 19.9375 24H2.0625ZM4.2625 18.6171H17.9094L13.5094 12.7543L9.9 17.4171L7.49375 14.4L4.2625 18.6171ZM10.3469 11.1771L13.6812 9.25714L17.0156 11.1771V2.05714H10.3469V11.1771Z" fill="#2C2C2E"/>
</svg>
