<svg width="36" height="31" viewBox="0 0 36 31" fill="none" xmlns="http://www.w3.org/2000/svg">
<path d="M22.1875 3.66881C25.3473 0.479433 30.4704 0.479434 33.6301 3.66881C36.7899 6.85818 36.7899 12.0292 33.6301 15.2186L17.9951 31L17.2306 30.2284C11.3332 24.2758 11.3332 14.6247 17.2306 8.67209L22.1875 3.66881Z" fill="url(#paint0_linear_4205_3161)" fill-opacity="0.8"/>
<path d="M11.6531 1.4892C9.68589 -0.496399 6.49645 -0.496399 4.52927 1.4892L2.36985 3.66883C-0.78995 6.85821 -0.789949 12.0292 2.36985 15.2186L3.77233 16.6342L11.6531 8.67968C13.6203 6.69408 13.6203 3.47479 11.6531 1.4892Z" fill="url(#paint1_linear_4205_3161)" fill-opacity="0.8"/>
<defs>
<linearGradient id="paint0_linear_4205_3161" x1="36" y1="16.4118" x2="-1.01729e-07" y2="16.4118" gradientUnits="userSpaceOnUse">
<stop stop-color="#FF3347"/>
<stop offset="1" stop-color="#0177FF"/>
</linearGradient>
<linearGradient id="paint1_linear_4205_3161" x1="36" y1="16.4118" x2="-1.01729e-07" y2="16.4118" gradientUnits="userSpaceOnUse">
<stop stop-color="#FF3347"/>
<stop offset="1" stop-color="#0177FF"/>
</linearGradient>
</defs>
</svg>
