<svg width="45" height="45" viewBox="0 0 45 45" fill="none" xmlns="http://www.w3.org/2000/svg">
<path d="M13.7444 31.5861H16.5778V18.6H13.7444V31.5861ZM21.5833 31.5861H24.4167V12.4139H21.5833V31.5861ZM29.4222 31.5861H32.2556V24.5972H29.4222V31.5861ZM8.83333 39C8.07778 39 7.41667 38.7167 6.85 38.15C6.28333 37.5833 6 36.9222 6 36.1667V7.83333C6 7.07778 6.28333 6.41667 6.85 5.85C7.41667 5.28333 8.07778 5 8.83333 5H37.1667C37.9222 5 38.5833 5.28333 39.15 5.85C39.7167 6.41667 40 7.07778 40 7.83333V36.1667C40 36.9222 39.7167 37.5833 39.15 38.15C38.5833 38.7167 37.9222 39 37.1667 39H8.83333Z" fill="#FF1D1D"/>
</svg>
