<svg width="22" height="21" viewBox="0 0 22 21" fill="none" xmlns="http://www.w3.org/2000/svg">
<path d="M7.6925 13.0462C7.29 13.0462 6.95312 12.9106 6.68187 12.6394C6.41062 12.3681 6.275 12.0312 6.275 11.6287C6.275 11.2262 6.41062 10.8894 6.68187 10.6181C6.95312 10.3469 7.29 10.2113 7.6925 10.2113C8.095 10.2113 8.43187 10.3469 8.70312 10.6181C8.97437 10.8894 9.11 11.2262 9.11 11.6287C9.11 12.0312 8.97437 12.3681 8.70312 12.6394C8.43187 12.9106 8.095 13.0462 7.6925 13.0462ZM14.3337 13.0462C13.9312 13.0462 13.5944 12.9106 13.3231 12.6394C13.0519 12.3681 12.9162 12.0312 12.9162 11.6287C12.9162 11.2262 13.0519 10.8894 13.3231 10.6181C13.5944 10.3469 13.9312 10.2113 14.3337 10.2113C14.7362 10.2113 15.0731 10.3469 15.3444 10.6181C15.6156 10.8894 15.7512 11.2262 15.7512 11.6287C15.7512 12.0312 15.6156 12.3681 15.3444 12.6394C15.0731 12.9106 14.7362 13.0462 14.3337 13.0462ZM11 19.425C13.485 19.425 15.5937 18.5587 17.3262 16.8262C19.0587 15.0937 19.925 12.985 19.925 10.5C19.925 10.045 19.89 9.59875 19.82 9.16125C19.75 8.72375 19.6625 8.32125 19.5575 7.95375C19.2075 8.04125 18.8269 8.1025 18.4156 8.1375C18.0044 8.1725 17.58 8.19 17.1425 8.19C15.445 8.19 13.8394 7.84 12.3256 7.14C10.8119 6.44 9.52125 5.4425 8.45375 4.1475C7.85875 5.565 7.00562 6.80312 5.89437 7.86188C4.78312 8.92062 3.51 9.73875 2.075 10.3162V10.5C2.075 12.985 2.94125 15.0937 4.67375 16.8262C6.40625 18.5587 8.515 19.425 11 19.425ZM11 21C9.5475 21 8.1825 20.7244 6.905 20.1731C5.6275 19.6219 4.51625 18.8738 3.57125 17.9287C2.62625 16.9837 1.87812 15.8725 1.32687 14.595C0.775625 13.3175 0.5 11.9525 0.5 10.5C0.5 9.0475 0.775625 7.6825 1.32687 6.405C1.87812 5.1275 2.62625 4.01625 3.57125 3.07125C4.51625 2.12625 5.6275 1.37812 6.905 0.826875C8.1825 0.275625 9.5475 0 11 0C12.4525 0 13.8175 0.275625 15.095 0.826875C16.3725 1.37812 17.4837 2.12625 18.4287 3.07125C19.3738 4.01625 20.1219 5.1275 20.6731 6.405C21.2244 7.6825 21.5 9.0475 21.5 10.5C21.5 11.9525 21.2244 13.3175 20.6731 14.595C20.1219 15.8725 19.3738 16.9837 18.4287 17.9287C17.4837 18.8738 16.3725 19.6219 15.095 20.1731C13.8175 20.7244 12.4525 21 11 21Z" fill="#171717"/>
</svg>
