<svg width="24" height="24" viewBox="0 0 24 24" fill="none" xmlns="http://www.w3.org/2000/svg">
<path d="M6.21476 13.1169H17.7851V10.7112H6.21476V13.1169ZM11.9999 23.9999C10.3579 23.9999 8.80186 23.6848 7.3317 23.0548C5.86154 22.4247 4.58708 21.5703 3.50833 20.4915C2.42958 19.4128 1.57517 18.1383 0.945102 16.6682C0.315034 15.198 0 13.6419 0 11.9999C0 10.3388 0.315034 8.77799 0.945102 7.31738C1.57517 5.85677 2.43435 4.58231 3.52265 3.49401C4.61095 2.40571 5.88541 1.5513 7.34602 0.930782C8.80663 0.310261 10.3484 0 11.9713 0C13.6324 0 15.198 0.310261 16.6682 0.930782C18.1383 1.5513 19.4175 2.40571 20.5058 3.49401C21.5941 4.58231 22.4486 5.85677 23.0691 7.31738C23.6896 8.77799 23.9999 10.3484 23.9999 12.0286C23.9999 13.6706 23.6896 15.2171 23.0691 16.6682C22.4486 18.1192 21.5941 19.3889 20.5058 20.4772C19.4175 21.5655 18.1431 22.4247 16.6825 23.0548C15.2219 23.6848 13.661 23.9999 11.9999 23.9999Z" fill="#FF1D1D"/>
</svg>
