<svg width="30" height="30" viewBox="0 0 30 30" fill="none" xmlns="http://www.w3.org/2000/svg">
<path d="M15.0001 29.0331C13.0668 29.0331 11.2446 28.672 9.53346 27.9498C7.82235 27.2275 6.32791 26.222 5.05013 24.9331C3.77235 23.6442 2.77235 22.1442 2.05013 20.4331C1.32791 18.722 0.966797 16.8887 0.966797 14.9331C0.966797 13.0442 1.33346 11.2387 2.0668 9.51644C2.80013 7.79422 3.80013 6.29422 5.0668 5.01644C6.33346 3.73866 7.82791 2.73866 9.55013 2.01644C11.2724 1.29422 13.089 0.933105 15.0001 0.933105C16.9112 0.933105 18.7279 1.29422 20.4501 2.01644C22.1724 2.73866 23.6668 3.73866 24.9335 5.01644C26.2001 6.29422 27.2057 7.79422 27.9501 9.51644C28.6946 11.2387 29.0668 13.0442 29.0668 14.9331C29.0668 16.8887 28.7001 18.7276 27.9668 20.4498C27.2335 22.172 26.2335 23.672 24.9668 24.9498C23.7001 26.2275 22.2057 27.2275 20.4835 27.9498C18.7612 28.672 16.9335 29.0331 15.0001 29.0331ZM15.0001 25.9998C18.0668 25.9998 20.6668 24.9275 22.8001 22.7831C24.9335 20.6387 26.0001 18.022 26.0001 14.9331C26.0001 13.7109 25.8112 12.5331 25.4335 11.3998C25.0557 10.2664 24.5001 9.23311 23.7668 8.29977L8.33346 23.6998C9.24458 24.4998 10.2724 25.0831 11.4168 25.4498C12.5612 25.8164 13.7557 25.9998 15.0001 25.9998ZM6.2668 21.5998L21.6335 6.19977C20.6779 5.46644 19.6446 4.91644 18.5335 4.54977C17.4224 4.18311 16.2446 3.99977 15.0001 3.99977C11.9335 3.99977 9.33346 5.06088 7.20013 7.18311C5.0668 9.30533 4.00013 11.8887 4.00013 14.9331C4.00013 16.1776 4.21124 17.3664 4.63346 18.4998C5.05569 19.6331 5.60013 20.6664 6.2668 21.5998Z" fill="#DADADA"/>
</svg>
