<svg width="29" height="32" viewBox="0 0 29 32" fill="none" xmlns="http://www.w3.org/2000/svg">
<path d="M0.649902 12.5406C0.649902 10.3935 1.10053 8.359 2.0018 6.43719C2.90306 4.51538 4.18868 2.87853 5.85867 1.52663L7.48889 3.3159C6.08398 4.45573 4.99054 5.82751 4.20856 7.43123C3.42659 9.03494 3.0356 10.7381 3.0356 12.5406H0.649902ZM26.6142 12.5406C26.6142 10.7381 26.2431 9.03494 25.5009 7.43123C24.7587 5.82751 23.6851 4.45573 22.2802 3.3159L23.9104 1.52663C25.5539 2.90503 26.813 4.54851 27.6878 6.45707C28.5625 8.36562 28.9999 10.3935 28.9999 12.5406H26.6142ZM2.08132 27.1331V24.7474H5.42129V12.5803C5.42129 10.4067 6.07736 8.43852 7.38949 6.67576C8.70162 4.91299 10.4313 3.8063 12.5784 3.35566V2.20258C12.5784 1.5929 12.7971 1.08925 13.2344 0.691638C13.6718 0.294023 14.1953 0.0952148 14.805 0.0952148C15.4147 0.0952148 15.9382 0.294023 16.3756 0.691638C16.813 1.08925 17.0317 1.5929 17.0317 2.20258V3.35566C19.1788 3.8063 20.9151 4.91299 22.2404 6.67576C23.5658 8.43852 24.2285 10.4067 24.2285 12.5803V24.7474H27.5287V27.1331H2.08132ZM14.805 31.9045C13.9568 31.9045 13.2146 31.593 12.5784 30.9701C11.9422 30.3471 11.6241 29.5983 11.6241 28.7235H17.9859C17.9859 29.5983 17.6745 30.3471 17.0516 30.9701C16.4286 31.593 15.6798 31.9045 14.805 31.9045Z" fill="#171717"/>
</svg>
