<svg width="21" height="20" viewBox="0 0 21 20" fill="none" xmlns="http://www.w3.org/2000/svg">
<path d="M2.75 9.24976C2.11667 9.24976 1.58333 9.03309 1.15 8.59976C0.716667 8.16642 0.5 7.63309 0.5 6.99976C0.5 6.36642 0.716667 5.83309 1.15 5.39976C1.58333 4.96642 2.11667 4.74976 2.75 4.74976C3.38333 4.74976 3.91667 4.96642 4.35 5.39976C4.78333 5.83309 5 6.36642 5 6.99976C5 7.63309 4.78333 8.16642 4.35 8.59976C3.91667 9.03309 3.38333 9.24976 2.75 9.24976ZM7.375 4.99976C6.74167 4.99976 6.20833 4.78309 5.775 4.34976C5.34167 3.91642 5.125 3.38309 5.125 2.74976C5.125 2.11642 5.34167 1.58309 5.775 1.14976C6.20833 0.716423 6.74167 0.499756 7.375 0.499756C8.00833 0.499756 8.54167 0.716423 8.975 1.14976C9.40833 1.58309 9.625 2.11642 9.625 2.74976C9.625 3.38309 9.40833 3.91642 8.975 4.34976C8.54167 4.78309 8.00833 4.99976 7.375 4.99976ZM13.625 4.99976C12.9917 4.99976 12.4583 4.78309 12.025 4.34976C11.5917 3.91642 11.375 3.38309 11.375 2.74976C11.375 2.11642 11.5917 1.58309 12.025 1.14976C12.4583 0.716423 12.9917 0.499756 13.625 0.499756C14.2583 0.499756 14.7917 0.716423 15.225 1.14976C15.6583 1.58309 15.875 2.11642 15.875 2.74976C15.875 3.38309 15.6583 3.91642 15.225 4.34976C14.7917 4.78309 14.2583 4.99976 13.625 4.99976ZM18.25 9.24976C17.6167 9.24976 17.0833 9.03309 16.65 8.59976C16.2167 8.16642 16 7.63309 16 6.99976C16 6.36642 16.2167 5.83309 16.65 5.39976C17.0833 4.96642 17.6167 4.74976 18.25 4.74976C18.8833 4.74976 19.4167 4.96642 19.85 5.39976C20.2833 5.83309 20.5 6.36642 20.5 6.99976C20.5 7.63309 20.2833 8.16642 19.85 8.59976C19.4167 9.03309 18.8833 9.24976 18.25 9.24976ZM5.15 19.4998C4.45 19.4998 3.875 19.2373 3.425 18.7123C2.975 18.1873 2.75 17.5664 2.75 16.8498C2.75 16.1498 2.9625 15.5289 3.3875 14.9873C3.8125 14.4456 4.26667 13.9248 4.75 13.4248C5.11667 13.0581 5.45833 12.6706 5.775 12.2623C6.09167 11.8539 6.39167 11.4331 6.675 10.9998C7.15833 10.2664 7.7 9.58309 8.3 8.94976C8.9 8.31642 9.63333 7.99976 10.5 7.99976C11.3667 7.99976 12.1042 8.31642 12.7125 8.94976C13.3208 9.58309 13.8667 10.2748 14.35 11.0248C14.6333 11.4581 14.9292 11.8748 15.2375 12.2748C15.5458 12.6748 15.8833 13.0581 16.25 13.4248C16.7333 13.9248 17.1875 14.4456 17.6125 14.9873C18.0375 15.5289 18.25 16.1498 18.25 16.8498C18.25 17.5664 18.025 18.1873 17.575 18.7123C17.125 19.2373 16.55 19.4998 15.85 19.4998C14.95 19.4998 14.0583 19.4248 13.175 19.2748C12.2917 19.1248 11.4 19.0498 10.5 19.0498C9.6 19.0498 8.70833 19.1248 7.825 19.2748C6.94167 19.4248 6.05 19.4998 5.15 19.4998Z" fill="#969696"/>
</svg>
