<svg width="32" height="32" viewBox="0 0 32 32" fill="none" xmlns="http://www.w3.org/2000/svg">
<path d="M16 15C13.8 15 12 14.3 10.6 12.9C9.2 11.5 8.5 9.7 8.5 7.5C8.5 5.3 9.2 3.5 10.6 2.1C12 0.7 13.8 0 16 0C18.2 0 20 0.7 21.4 2.1C22.8 3.5 23.5 5.3 23.5 7.5C23.5 9.7 22.8 11.5 21.4 12.9C20 14.3 18.2 15 16 15ZM0 31.05V26.35C0 25.0833 0.316666 24 0.95 23.1C1.58333 22.2 2.4 21.5167 3.4 21.05C5.63333 20.05 7.775 19.3 9.825 18.8C11.875 18.3 13.9333 18.05 16 18.05C18.0667 18.05 20.1167 18.3083 22.15 18.825C24.1833 19.3417 26.3167 20.0833 28.55 21.05C29.5833 21.5167 30.4167 22.2 31.05 23.1C31.6833 24 32 25.0833 32 26.35V31.05H0Z" fill="#171717"/>
</svg>
