<svg width="60" height="60" viewBox="0 0 60 60" fill="none" xmlns="http://www.w3.org/2000/svg">
<path d="M16 40.4286V37.4512C16 36.7122 16.19 36.0417 16.5701 35.4399C16.9502 34.8381 17.4781 34.3894 18.1538 34.0938C19.6953 33.418 21.0837 32.9324 22.319 32.6367C23.5543 32.3411 24.8265 32.1933 26.1357 32.1933C27.4449 32.1933 28.7119 32.3411 29.9367 32.6367C31.1614 32.9324 32.5445 33.418 34.086 34.0938C34.7617 34.3894 35.2949 34.8381 35.6855 35.4399C36.0762 36.0417 36.2715 36.7122 36.2715 37.4512V40.4286H16ZM38.1719 40.4286V37.4512C38.1719 36.1209 37.8341 35.0281 37.1584 34.1729C36.4827 33.3177 35.5958 32.6262 34.4977 32.0983C35.9548 32.2672 37.3273 32.5153 38.6154 32.8426C39.9035 33.1699 40.9487 33.5447 41.7511 33.9671C42.448 34.3683 42.997 34.8645 43.3982 35.4557C43.7994 36.047 44 36.7122 44 37.4512V40.4286H38.1719ZM26.1357 30.2612C24.7421 30.2612 23.6018 29.8177 22.7149 28.9309C21.8281 28.044 21.3846 26.9037 21.3846 25.51C21.3846 24.1164 21.8281 22.9761 22.7149 22.0892C23.6018 21.2024 24.7421 20.7589 26.1357 20.7589C27.5294 20.7589 28.6697 21.2024 29.5566 22.0892C30.4434 22.9761 30.8869 24.1164 30.8869 25.51C30.8869 26.9037 30.4434 28.044 29.5566 28.9309C28.6697 29.8177 27.5294 30.2612 26.1357 30.2612ZM37.5385 25.51C37.5385 26.9037 37.095 28.044 36.2081 28.9309C35.3213 29.8177 34.181 30.2612 32.7873 30.2612C32.5551 30.2612 32.2964 30.2453 32.0113 30.2137C31.7262 30.182 31.4676 30.1239 31.2353 30.0395C31.7421 29.5116 32.1275 28.8622 32.3914 28.0915C32.6554 27.3208 32.7873 26.4603 32.7873 25.51C32.7873 24.5598 32.6554 23.7204 32.3914 22.9919C32.1275 22.2634 31.7421 21.593 31.2353 20.9806C31.4676 20.9173 31.7262 20.8645 32.0113 20.8223C32.2964 20.78 32.5551 20.7589 32.7873 20.7589C34.181 20.7589 35.3213 21.2024 36.2081 22.0892C37.095 22.9761 37.5385 24.1164 37.5385 25.51Z" fill="white"/>
</svg>
