<svg width="22" height="22" viewBox="0 0 22 22" fill="none" xmlns="http://www.w3.org/2000/svg">
<path d="M20.625 22C18.1398 22 15.6699 21.3889 13.2153 20.1667C10.7606 18.9444 8.55556 17.3556 6.6 15.4C4.64444 13.4444 3.05556 11.2394 1.83333 8.78472C0.611111 6.33009 0 3.86019 0 1.375C0 0.987963 0.132407 0.662037 0.397222 0.397222C0.662037 0.132407 0.987963 0 1.375 0H5.65278C5.93796 0 6.1875 0.0967592 6.40139 0.290278C6.61528 0.483796 6.75278 0.743518 6.81389 1.06944L7.63889 4.91944C7.67963 5.20463 7.67454 5.46435 7.62361 5.69861C7.57269 5.93287 7.46574 6.13148 7.30278 6.29444L4.24722 9.38056C5.38796 11.275 6.6662 12.925 8.08194 14.3306C9.49769 15.7361 11.1019 16.9278 12.8944 17.9056L15.7972 14.9111C16.0009 14.687 16.2352 14.5292 16.5 14.4375C16.7648 14.3458 17.0296 14.3306 17.2944 14.3917L20.9306 15.1861C21.2361 15.2472 21.4907 15.4 21.6944 15.6444C21.8981 15.8889 22 16.1741 22 16.5V20.625C22 21.012 21.8676 21.338 21.6028 21.6028C21.338 21.8676 21.012 22 20.625 22Z" fill="white"/>
</svg>
