<svg width="23" height="23" viewBox="0 0 23 23" fill="none" xmlns="http://www.w3.org/2000/svg">
<path d="M1.91667 23C1.40556 23 0.958333 22.8083 0.575 22.425C0.191667 22.0417 0 21.5944 0 21.0833V1.91667C0 1.40556 0.191667 0.958333 0.575 0.575C0.958333 0.191667 1.40556 0 1.91667 0H21.0833C21.5944 0 22.0417 0.191667 22.425 0.575C22.8083 0.958333 23 1.40556 23 1.91667V21.0833C23 21.5944 22.8083 22.0417 22.425 22.425C22.0417 22.8083 21.5944 23 21.0833 23H1.91667ZM3.70556 17.9847H19.3264L14.6306 11.7236L10.4139 17.1861L7.44306 13.1292L3.70556 17.9847Z" fill="#2C2C2E"/>
</svg>
