<svg width="19" height="19" viewBox="0 0 19 19" fill="none" xmlns="http://www.w3.org/2000/svg">
<path d="M7.18667 19.0002L6.72 16.0602C6.42444 15.9513 6.11333 15.8035 5.78667 15.6168C5.46 15.4302 5.17222 15.2357 4.92333 15.0335L2.17 16.2935L0 12.4668L2.52 10.6235C2.48889 10.4835 2.46944 10.3241 2.46167 10.1452C2.45389 9.96627 2.45 9.80683 2.45 9.66683C2.45 9.52683 2.45389 9.36738 2.46167 9.1885C2.46944 9.00961 2.48889 8.85016 2.52 8.71016L0 6.86683L2.17 3.04016L4.92333 4.30016C5.17222 4.09794 5.46 3.9035 5.78667 3.71683C6.11333 3.53016 6.42444 3.39016 6.72 3.29683L7.18667 0.333496H11.48L11.9467 3.2735C12.2422 3.38238 12.5572 3.52627 12.8917 3.70516C13.2261 3.88405 13.51 4.08238 13.7433 4.30016L16.4967 3.04016L18.6667 6.86683L16.1467 8.6635C16.1778 8.81905 16.1972 8.98627 16.205 9.16516C16.2128 9.34405 16.2167 9.51127 16.2167 9.66683C16.2167 9.82238 16.2128 9.98572 16.205 10.1568C16.1972 10.3279 16.1778 10.4913 16.1467 10.6468L18.6667 12.4668L16.4967 16.2935L13.7433 15.0335C13.4944 15.2357 13.2106 15.4341 12.8917 15.6285C12.5728 15.8229 12.2578 15.9668 11.9467 16.0602L11.48 19.0002H7.18667ZM9.33333 12.7002C10.1733 12.7002 10.8889 12.4046 11.48 11.8135C12.0711 11.2224 12.3667 10.5068 12.3667 9.66683C12.3667 8.82683 12.0711 8.11127 11.48 7.52016C10.8889 6.92905 10.1733 6.6335 9.33333 6.6335C8.49333 6.6335 7.77778 6.92905 7.18667 7.52016C6.59555 8.11127 6.3 8.82683 6.3 9.66683C6.3 10.5068 6.59555 11.2224 7.18667 11.8135C7.77778 12.4046 8.49333 12.7002 9.33333 12.7002Z" fill="#969696"/>
</svg>
