<svg width="22" height="22" viewBox="0 0 22 22" fill="none" xmlns="http://www.w3.org/2000/svg">
<path d="M8.21333 21.3333L7.68 17.9733C7.34222 17.8489 6.98667 17.68 6.61333 17.4667C6.24 17.2533 5.91111 17.0311 5.62667 16.8L2.48 18.24L0 13.8667L2.88 11.76C2.84444 11.6 2.82222 11.4178 2.81333 11.2133C2.80444 11.0089 2.8 10.8267 2.8 10.6667C2.8 10.5067 2.80444 10.3244 2.81333 10.12C2.82222 9.91556 2.84444 9.73333 2.88 9.57333L0 7.46667L2.48 3.09333L5.62667 4.53333C5.91111 4.30222 6.24 4.08 6.61333 3.86667C6.98667 3.65333 7.34222 3.49333 7.68 3.38667L8.21333 0H13.12L13.6533 3.36C13.9911 3.48444 14.3511 3.64889 14.7333 3.85333C15.1156 4.05778 15.44 4.28444 15.7067 4.53333L18.8533 3.09333L21.3333 7.46667L18.4533 9.52C18.4889 9.69778 18.5111 9.88889 18.52 10.0933C18.5289 10.2978 18.5333 10.4889 18.5333 10.6667C18.5333 10.8444 18.5289 11.0311 18.52 11.2267C18.5111 11.4222 18.4889 11.6089 18.4533 11.7867L21.3333 13.8667L18.8533 18.24L15.7067 16.8C15.4222 17.0311 15.0978 17.2578 14.7333 17.48C14.3689 17.7022 14.0089 17.8667 13.6533 17.9733L13.12 21.3333H8.21333ZM10.6667 14.1333C11.6267 14.1333 12.4444 13.7956 13.12 13.12C13.7956 12.4444 14.1333 11.6267 14.1333 10.6667C14.1333 9.70667 13.7956 8.88889 13.12 8.21333C12.4444 7.53778 11.6267 7.2 10.6667 7.2C9.70667 7.2 8.88889 7.53778 8.21333 8.21333C7.53778 8.88889 7.2 9.70667 7.2 10.6667C7.2 11.6267 7.53778 12.4444 8.21333 13.12C8.88889 13.7956 9.70667 14.1333 10.6667 14.1333Z" fill="#969696"/>
</svg>
