<svg width="16" height="26" viewBox="0 0 16 26" fill="none" xmlns="http://www.w3.org/2000/svg">
<path d="M1.71429 25.5713C1.25714 25.5713 0.857143 25.3999 0.514286 25.057C0.171428 24.7142 0 24.3142 0 23.857V2.14275C0 1.68561 0.171428 1.28561 0.514286 0.942753C0.857143 0.599895 1.25714 0.428467 1.71429 0.428467H14.2857C14.7429 0.428467 15.1429 0.599895 15.4857 0.942753C15.8286 1.28561 16 1.68561 16 2.14275V23.857C16 24.3142 15.8286 24.7142 15.4857 25.057C15.1429 25.3999 14.7429 25.5713 14.2857 25.5713H1.71429ZM8 23.4285C8.24762 23.4285 8.45238 23.3475 8.61429 23.1856C8.77619 23.0237 8.85714 22.8189 8.85714 22.5713C8.85714 22.3237 8.77619 22.1189 8.61429 21.957C8.45238 21.7951 8.24762 21.7142 8 21.7142C7.75238 21.7142 7.54762 21.7951 7.38571 21.957C7.22381 22.1189 7.14286 22.3237 7.14286 22.5713C7.14286 22.8189 7.22381 23.0237 7.38571 23.1856C7.54762 23.3475 7.75238 23.4285 8 23.4285ZM1.71429 19.5713H14.2857V4.71418H1.71429V19.5713Z" fill="#2C2C2E"/>
</svg>
