<svg width="34" height="34" viewBox="0 0 34 34" fill="none" xmlns="http://www.w3.org/2000/svg">
<path d="M17.085 28.9L21.93 24.0975L17.085 19.295L15.3 21.08L17.1275 22.9075C16.3342 22.9358 15.5621 22.8083 14.8112 22.525C14.0604 22.2417 13.3875 21.8025 12.7925 21.2075C12.2258 20.6408 11.7937 19.9892 11.4963 19.2525C11.1987 18.5158 11.05 17.7792 11.05 17.0425C11.05 16.5608 11.1138 16.0792 11.2413 15.5975C11.3688 15.1158 11.5458 14.6483 11.7725 14.195L9.9025 12.325C9.42083 13.0333 9.06667 13.7842 8.84 14.5775C8.61333 15.3708 8.5 16.1783 8.5 17C8.5 18.0767 8.7125 19.1392 9.1375 20.1875C9.5625 21.2358 10.1858 22.1708 11.0075 22.9925C11.8292 23.8142 12.75 24.4304 13.77 24.8412C14.79 25.2521 15.8383 25.4717 16.915 25.5L15.3 27.115L17.085 28.9ZM24.0975 21.675C24.5792 20.9667 24.9333 20.2158 25.16 19.4225C25.3867 18.6292 25.5 17.8217 25.5 17C25.5 15.9233 25.2946 14.8538 24.8838 13.7913C24.4729 12.7288 23.8567 11.7867 23.035 10.965C22.2133 10.1433 21.2854 9.53417 20.2513 9.1375C19.2171 8.74083 18.1617 8.5425 17.085 8.5425L18.7 6.885L16.915 5.1L12.07 9.9025L16.915 14.705L18.7 12.92L16.83 11.05C17.595 11.05 18.3742 11.1987 19.1675 11.4963C19.9608 11.7937 20.6408 12.2258 21.2075 12.7925C21.7742 13.3592 22.2063 14.0108 22.5038 14.7475C22.8013 15.4842 22.95 16.2208 22.95 16.9575C22.95 17.4392 22.8862 17.9208 22.7588 18.4025C22.6313 18.8842 22.4542 19.3517 22.2275 19.805L24.0975 21.675ZM17 34C14.6767 34 12.4808 33.5537 10.4125 32.6613C8.34417 31.7688 6.53792 30.5504 4.99375 29.0063C3.44958 27.4621 2.23125 25.6558 1.33875 23.5875C0.44625 21.5192 0 19.3233 0 17C0 14.6483 0.44625 12.4383 1.33875 10.37C2.23125 8.30167 3.44958 6.5025 4.99375 4.9725C6.53792 3.4425 8.34417 2.23125 10.4125 1.33875C12.4808 0.44625 14.6767 0 17 0C19.3517 0 21.5617 0.44625 23.63 1.33875C25.6983 2.23125 27.4975 3.4425 29.0275 4.9725C30.5575 6.5025 31.7688 8.30167 32.6613 10.37C33.5537 12.4383 34 14.6483 34 17C34 19.3233 33.5537 21.5192 32.6613 23.5875C31.7688 25.6558 30.5575 27.4621 29.0275 29.0063C27.4975 30.5504 25.6983 31.7688 23.63 32.6613C21.5617 33.5537 19.3517 34 17 34Z" fill="#171717"/>
</svg>
