<svg width="30" height="32" viewBox="0 0 30 32" fill="none" xmlns="http://www.w3.org/2000/svg">
<path d="M5.56579 14.16L14.25 0L22.9342 14.16H5.56579ZM23.1316 32C21.2105 32 19.5855 31.3267 18.2566 29.98C16.9276 28.6333 16.2632 26.9867 16.2632 25.04C16.2632 23.12 16.9276 21.48 18.2566 20.12C19.5855 18.76 21.2105 18.08 23.1316 18.08C25.0263 18.08 26.6447 18.76 27.9868 20.12C29.3289 21.48 30 23.12 30 25.04C30 26.9867 29.3289 28.6333 27.9868 29.98C26.6447 31.3267 25.0263 32 23.1316 32ZM0 31V18.84H12V31H0Z" fill="#171717"/>
</svg>
