<svg width="22" height="21" viewBox="0 0 22 21" fill="none" xmlns="http://www.w3.org/2000/svg">
<path d="M11 18.7968C8.93089 18.7968 7.17507 18.0755 5.73252 16.633C4.28998 15.1904 3.56871 13.4346 3.56871 11.3655C3.56871 9.55868 4.1297 7.98135 5.25168 6.63352C6.37366 5.28569 7.78706 4.43692 9.49188 4.08721C9.47731 4.17464 9.47003 4.25842 9.47003 4.33856V4.58992C9.47003 6.01789 9.96909 7.23094 10.9672 8.22906C11.9653 9.22719 13.1784 9.72625 14.6064 9.72625C15.2621 9.72625 15.8668 9.62061 16.4205 9.40933C16.9742 9.19804 17.4623 8.91026 17.8849 8.54599C18.0597 8.98312 18.1945 9.43847 18.2892 9.91203C18.3839 10.3856 18.4313 10.8701 18.4313 11.3655C18.4313 13.4346 17.71 15.1904 16.2675 16.633C14.8249 18.0755 13.0691 18.7968 11 18.7968ZM11 20.1082C11.3351 20.1082 11.6703 20.0863 12.0054 20.0426C12.3405 19.9989 12.6757 19.9406 13.0108 19.8678C14.2639 20.844 15.6664 21.1828 17.2182 20.8841C18.7701 20.5854 19.954 19.7512 20.77 18.3815C21.4111 17.3033 21.6297 16.1521 21.4257 14.9282C21.2217 13.7042 20.6534 12.6696 19.7208 11.8245V11.7589C20.6534 10.9284 21.218 9.9011 21.4147 8.67713C21.6114 7.45315 21.3965 6.30203 20.77 5.22376C20.2308 4.30578 19.4913 3.61729 18.5515 3.1583C17.6117 2.69931 16.6172 2.53538 15.5681 2.66652C15.1018 1.83597 14.4643 1.18391 13.6556 0.710344C12.8469 0.236781 11.9617 0 11 0C10.0383 0 9.1531 0.236781 8.3444 0.710344C7.5357 1.18391 6.89822 1.83597 6.43194 2.66652C5.38282 2.53538 4.38833 2.69931 3.4485 3.1583C2.50866 3.61729 1.76917 4.30578 1.23004 5.22376C0.603476 6.30203 0.388551 7.45315 0.585262 8.67713C0.781973 9.9011 1.34661 10.9284 2.27916 11.7589V11.8245C1.34661 12.6696 0.77833 13.7042 0.574334 14.9282C0.370338 16.1521 0.588905 17.3033 1.23004 18.3815C2.04602 19.7512 3.22993 20.5854 4.78176 20.8841C6.33358 21.1828 7.73606 20.844 8.98918 19.8678C9.32432 19.9406 9.65945 19.9989 9.99459 20.0426C10.3297 20.0863 10.6649 20.1082 11 20.1082ZM8.24605 13.4856C7.91091 13.4856 7.63042 13.3727 7.40456 13.1468C7.17871 12.921 7.06579 12.6405 7.06579 12.3053C7.06579 11.9702 7.17871 11.6897 7.40456 11.4639C7.63042 11.238 7.91091 11.1251 8.24605 11.1251C8.58119 11.1251 8.86168 11.238 9.08753 11.4639C9.31339 11.6897 9.42631 11.9702 9.42631 12.3053C9.42631 12.6405 9.31339 12.921 9.08753 13.1468C8.86168 13.3727 8.58119 13.4856 8.24605 13.4856ZM13.7758 13.4856C13.4407 13.4856 13.1602 13.3727 12.9343 13.1468C12.7085 12.921 12.5955 12.6405 12.5955 12.3053C12.5955 11.9702 12.7085 11.6897 12.9343 11.4639C13.1602 11.238 13.4407 11.1251 13.7758 11.1251C14.1109 11.1251 14.3914 11.238 14.6173 11.4639C14.8431 11.6897 14.9561 11.9702 14.9561 12.3053C14.9561 12.6405 14.8431 12.921 14.6173 13.1468C14.3914 13.3727 14.1109 13.4856 13.7758 13.4856Z" fill="#969696"/>
</svg>
